<svg version="1.1" viewBox="0.0 0.0 600.0 371.0" fill="none" stroke="none" stroke-linecap="square" stroke-miterlimit="10" width="600" height="371" xmlns:xlink="http://www.w3.org/1999/xlink" xmlns="http://www.w3.org/2000/svg"><path fill="#ffffff" d="M0 0L600.0 0L600.0 371.0L0 371.0L0 0Z" fill-rule="nonzero"/><path stroke="#333333" stroke-width="1.0" stroke-linecap="butt" d="M94.5 300.5L581.5 300.5" fill-rule="nonzero"/><path stroke="#cccccc" stroke-width="1.0" stroke-linecap="butt" d="M94.5 240.5L581.5 240.5" fill-rule="nonzero"/><path stroke="#cccccc" stroke-width="1.0" stroke-linecap="butt" d="M94.5 181.5L581.5 181.5" fill-rule="nonzero"/><path stroke="#cccccc" stroke-width="1.0" stroke-linecap="butt" d="M94.5 121.5L581.5 121.5" fill-rule="nonzero"/><path stroke="#cccccc" stroke-width="1.0" stroke-linecap="butt" d="M94.5 61.5L581.5 61.5" fill-rule="nonzero"/><clipPath id="id_0"><path d="M94.55 61.916668L581.45 61.916668L581.45 300.45L94.55 300.45L94.55 61.916668Z" clip-rule="nonzero"/></clipPath><path stroke="#000000" stroke-width="2.0" stroke-linecap="butt" stroke-opacity="0.0" clip-path="url(#id_0)" d="M186.0 300.0L127.0 300.0L127.0 300.0C127.0 300.0 127.0 300.0 127.0 300.0L186.0 300.0C186.0 300.0 186.0 300.0 186.0 300.0Z" fill-rule="nonzero"/><path fill="#4285f4" clip-path="url(#id_0)" d="M186.0 300.0L127.0 300.0L127.0 300.0C127.0 300.0 127.0 300.0 127.0 300.0L186.0 300.0C186.0 300.0 186.0 300.0 186.0 300.0Z" fill-rule="nonzero"/><path stroke="#000000" stroke-width="2.0" stroke-linecap="butt" stroke-opacity="0.0" clip-path="url(#id_0)" d="M277.0 300.0L218.0 300.0L218.0 299.0C218.0 298.44772 218.44771 298.0 219.0 298.0L276.0 298.0C276.55228 298.0 277.0 298.44772 277.0 299.0Z" fill-rule="nonzero"/><path fill="#4285f4" clip-path="url(#id_0)" d="M277.0 300.0L218.0 300.0L218.0 299.0C218.0 298.44772 218.44771 298.0 219.0 298.0L276.0 298.0C276.55228 298.0 277.0 298.44772 277.0 299.0Z" fill-rule="nonzero"/><path stroke="#000000" stroke-width="2.0" stroke-linecap="butt" stroke-opacity="0.0" clip-path="url(#id_0)" d="M368.0 300.0L309.0 300.0L309.0 297.0C309.0 295.89542 309.89542 295.0 311.0 295.0L366.0 295.0C367.10458 295.0 368.0 295.89542 368.0 297.0Z" fill-rule="nonzero"/><path fill="#4285f4" clip-path="url(#id_0)" d="M368.0 300.0L309.0 300.0L309.0 297.0C309.0 295.89542 309.89542 295.0 311.0 295.0L366.0 295.0C367.10458 295.0 368.0 295.89542 368.0 297.0Z" fill-rule="nonzero"/><path stroke="#000000" stroke-width="2.0" stroke-linecap="butt" stroke-opacity="0.0" clip-path="url(#id_0)" d="M459.0 300.0L400.0 300.0L400.0 286.0C400.0 284.89542 400.89542 284.0 402.0 284.0L457.0 284.0C458.10458 284.0 459.0 284.89542 459.0 286.0Z" fill-rule="nonzero"/><path fill="#4285f4" clip-path="url(#id_0)" d="M459.0 300.0L400.0 300.0L400.0 286.0C400.0 284.89542 400.89542 284.0 402.0 284.0L457.0 284.0C458.10458 284.0 459.0 284.89542 459.0 286.0Z" fill-rule="nonzero"/><path stroke="#000000" stroke-width="2.0" stroke-linecap="butt" stroke-opacity="0.0" clip-path="url(#id_0)" d="M550.0 300.0L491.0 300.0L491.0 92.0C491.0 90.89543 491.89542 90.0 493.0 90.0L548.0 90.0C549.10455 90.0 550.0 90.89543 550.0 92.0Z" fill-rule="nonzero"/><path fill="#4285f4" clip-path="url(#id_0)" d="M550.0 300.0L491.0 300.0L491.0 92.0C491.0 90.89543 491.89542 90.0 493.0 90.0L548.0 90.0C549.10455 90.0 550.0 90.89543 550.0 92.0Z" fill-rule="nonzero"/><path stroke="#ffffff" stroke-width="3.0" stroke-linejoin="round" stroke-linecap="round" d="M151.79688 284.55847L146.20312 284.55847L146.20312 283.77722L149.15625 280.49597Q149.8125 279.74597 150.0625 279.29285Q150.3125 278.8241 150.3125 278.3241Q150.3125 277.65222 149.90625 277.23035Q149.51562 276.79285 148.82812 276.79285Q148.03125 276.79285 147.57812 277.2616Q147.125 277.71472 147.125 278.54285L146.04688 278.54285Q146.04688 277.35535 146.79688 276.6366Q147.5625 275.90222 148.82812 275.90222Q150.03125 275.90222 150.71875 276.52722Q151.40625 277.15222 151.40625 278.1991Q151.40625 279.4491 149.79688 281.1991L147.51562 283.66785L151.79688 283.66785L151.79688 284.55847ZM157.35938 280.80847Q157.03125 281.21472 156.54688 281.46472Q156.07812 281.6991 155.51562 281.6991Q154.78125 281.6991 154.23438 281.33972Q153.6875 280.98035 153.39062 280.3241Q153.09375 279.65222 153.09375 278.85535Q153.09375 278.0116 153.40625 277.3241Q153.73438 276.6366 154.32812 276.27722Q154.9375 275.90222 155.73438 275.90222Q157.0 275.90222 157.71875 276.85535Q158.45312 277.80847 158.45312 279.43347L158.45312 279.74597Q158.45312 282.24597 157.46875 283.3866Q156.48438 284.52722 154.5 284.55847L154.28125 284.55847L154.28125 283.65222L154.51562 283.65222Q155.85938 283.62097 156.57812 282.9491Q157.29688 282.27722 157.35938 280.80847ZM155.6875 280.80847Q156.23438 280.80847 156.6875 280.48035Q157.15625 280.1366 157.375 279.65222L157.375 279.21472Q157.375 278.15222 156.90625 277.48035Q156.4375 276.80847 155.73438 276.80847Q155.01562 276.80847 154.57812 277.35535Q154.15625 277.90222 154.15625 278.80847Q154.15625 279.68347 154.5625 280.24597Q154.98438 280.80847 155.6875 280.80847ZM164.35938 280.80847Q164.03125 281.21472 163.54688 281.46472Q163.07812 281.6991 162.51562 281.6991Q161.78125 281.6991 161.23438 281.33972Q160.6875 280.98035 160.39062 280.3241Q160.09375 279.65222 160.09375 278.85535Q160.09375 278.0116 160.40625 277.3241Q160.73438 276.6366 161.32812 276.27722Q161.9375 275.90222 162.73438 275.90222Q164.0 275.90222 164.71875 276.85535Q165.45312 277.80847 165.45312 279.43347L165.45312 279.74597Q165.45312 282.24597 164.46875 283.3866Q163.48438 284.52722 161.5 284.55847L161.28125 284.55847L161.28125 283.65222L161.51562 283.65222Q162.85938 283.62097 163.57812 282.9491Q164.29688 282.27722 164.35938 280.80847ZM162.6875 280.80847Q163.23438 280.80847 163.6875 280.48035Q164.15625 280.1366 164.375 279.65222L164.375 279.21472Q164.375 278.15222 163.90625 277.48035Q163.4375 276.80847 162.73438 276.80847Q162.01562 276.80847 161.57812 277.35535Q161.15625 277.90222 161.15625 278.80847Q161.15625 279.68347 161.5625 280.24597Q161.98438 280.80847 162.6875 280.80847Z" fill-rule="nonzero"/><path fill="#4285f4" d="M151.79688 284.55847L146.20312 284.55847L146.20312 283.77722L149.15625 280.49597Q149.8125 279.74597 150.0625 279.29285Q150.3125 278.8241 150.3125 278.3241Q150.3125 277.65222 149.90625 277.23035Q149.51562 276.79285 148.82812 276.79285Q148.03125 276.79285 147.57812 277.2616Q147.125 277.71472 147.125 278.54285L146.04688 278.54285Q146.04688 277.35535 146.79688 276.6366Q147.5625 275.90222 148.82812 275.90222Q150.03125 275.90222 150.71875 276.52722Q151.40625 277.15222 151.40625 278.1991Q151.40625 279.4491 149.79688 281.1991L147.51562 283.66785L151.79688 283.66785L151.79688 284.55847ZM157.35938 280.80847Q157.03125 281.21472 156.54688 281.46472Q156.07812 281.6991 155.51562 281.6991Q154.78125 281.6991 154.23438 281.33972Q153.6875 280.98035 153.39062 280.3241Q153.09375 279.65222 153.09375 278.85535Q153.09375 278.0116 153.40625 277.3241Q153.73438 276.6366 154.32812 276.27722Q154.9375 275.90222 155.73438 275.90222Q157.0 275.90222 157.71875 276.85535Q158.45312 277.80847 158.45312 279.43347L158.45312 279.74597Q158.45312 282.24597 157.46875 283.3866Q156.48438 284.52722 154.5 284.55847L154.28125 284.55847L154.28125 283.65222L154.51562 283.65222Q155.85938 283.62097 156.57812 282.9491Q157.29688 282.27722 157.35938 280.80847ZM155.6875 280.80847Q156.23438 280.80847 156.6875 280.48035Q157.15625 280.1366 157.375 279.65222L157.375 279.21472Q157.375 278.15222 156.90625 277.48035Q156.4375 276.80847 155.73438 276.80847Q155.01562 276.80847 154.57812 277.35535Q154.15625 277.90222 154.15625 278.80847Q154.15625 279.68347 154.5625 280.24597Q154.98438 280.80847 155.6875 280.80847ZM164.35938 280.80847Q164.03125 281.21472 163.54688 281.46472Q163.07812 281.6991 162.51562 281.6991Q161.78125 281.6991 161.23438 281.33972Q160.6875 280.98035 160.39062 280.3241Q160.09375 279.65222 160.09375 278.85535Q160.09375 278.0116 160.40625 277.3241Q160.73438 276.6366 161.32812 276.27722Q161.9375 275.90222 162.73438 275.90222Q164.0 275.90222 164.71875 276.85535Q165.45312 277.80847 165.45312 279.43347L165.45312 279.74597Q165.45312 282.24597 164.46875 283.3866Q163.48438 284.52722 161.5 284.55847L161.28125 284.55847L161.28125 283.65222L161.51562 283.65222Q162.85938 283.62097 163.57812 282.9491Q164.29688 282.27722 164.35938 280.80847ZM162.6875 280.80847Q163.23438 280.80847 163.6875 280.48035Q164.15625 280.1366 164.375 279.65222L164.375 279.21472Q164.375 278.15222 163.90625 277.48035Q163.4375 276.80847 162.73438 276.80847Q162.01562 276.80847 161.57812 277.35535Q161.15625 277.90222 161.15625 278.80847Q161.15625 279.68347 161.5625 280.24597Q161.98438 280.80847 162.6875 280.80847Z" fill-rule="nonzero"/><path stroke="#ffffff" stroke-width="3.0" stroke-linejoin="round" stroke-linecap="round" d="M242.71875 275.23523L239.1875 283.1571L238.04688 283.1571L241.5625 275.51648L236.95312 275.51648L236.95312 274.62585L242.71875 274.62585L242.71875 275.23523ZM248.46875 274.62585L248.46875 275.5321L248.26562 275.5321Q247.0 275.56335 246.25 276.29773Q245.5 277.01648 245.375 278.32898Q246.0625 277.56335 247.21875 277.56335Q248.32812 277.56335 249.0 278.3446Q249.67188 279.12585 249.67188 280.37585Q249.67188 281.68835 248.95312 282.48523Q248.23438 283.2821 247.01562 283.2821Q245.79688 283.2821 245.03125 282.3446Q244.28125 281.39148 244.28125 279.9071L244.28125 279.50085Q244.28125 277.14148 245.28125 275.89148Q246.28125 274.64148 248.26562 274.62585L248.46875 274.62585ZM247.04688 278.4696Q246.48438 278.4696 246.01562 278.79773Q245.54688 279.12585 245.35938 279.64148L245.35938 280.0321Q245.35938 281.0946 245.82812 281.73523Q246.3125 282.37585 247.01562 282.37585Q247.75 282.37585 248.17188 281.8446Q248.59375 281.29773 248.59375 280.42273Q248.59375 279.54773 248.17188 279.01648Q247.75 278.4696 247.04688 278.4696ZM255.35938 279.4071Q255.03125 279.81335 254.54688 280.06335Q254.07812 280.29773 253.51562 280.29773Q252.78125 280.29773 252.23438 279.93835Q251.6875 279.57898 251.39062 278.92273Q251.09375 278.25085 251.09375 277.45398Q251.09375 276.61023 251.40625 275.92273Q251.73438 275.23523 252.32812 274.87585Q252.9375 274.50085 253.73438 274.50085Q255.0 274.50085 255.71875 275.45398Q256.45312 276.4071 256.45312 278.0321L256.45312 278.3446Q256.45312 280.8446 255.46875 281.98523Q254.48438 283.12585 252.5 283.1571L252.28125 283.1571L252.28125 282.25085L252.51562 282.25085Q253.85938 282.2196 254.57812 281.54773Q255.29688 280.87585 255.35938 279.4071ZM253.6875 279.4071Q254.23438 279.4071 254.6875 279.07898Q255.15625 278.73523 255.375 278.25085L255.375 277.81335Q255.375 276.75085 254.90625 276.07898Q254.4375 275.4071 253.73438 275.4071Q253.01562 275.4071 252.57812 275.95398Q252.15625 276.50085 252.15625 277.4071Q252.15625 278.2821 252.5625 278.8446Q252.98438 279.4071 253.6875 279.4071Z" fill-rule="nonzero"/><path fill="#4285f4" d="M242.71875 275.23523L239.1875 283.1571L238.04688 283.1571L241.5625 275.51648L236.95312 275.51648L236.95312 274.62585L242.71875 274.62585L242.71875 275.23523ZM248.46875 274.62585L248.46875 275.5321L248.26562 275.5321Q247.0 275.56335 246.25 276.29773Q245.5 277.01648 245.375 278.32898Q246.0625 277.56335 247.21875 277.56335Q248.32812 277.56335 249.0 278.3446Q249.67188 279.12585 249.67188 280.37585Q249.67188 281.68835 248.95312 282.48523Q248.23438 283.2821 247.01562 283.2821Q245.79688 283.2821 245.03125 282.3446Q244.28125 281.39148 244.28125 279.9071L244.28125 279.50085Q244.28125 277.14148 245.28125 275.89148Q246.28125 274.64148 248.26562 274.62585L248.46875 274.62585ZM247.04688 278.4696Q246.48438 278.4696 246.01562 278.79773Q245.54688 279.12585 245.35938 279.64148L245.35938 280.0321Q245.35938 281.0946 245.82812 281.73523Q246.3125 282.37585 247.01562 282.37585Q247.75 282.37585 248.17188 281.8446Q248.59375 281.29773 248.59375 280.42273Q248.59375 279.54773 248.17188 279.01648Q247.75 278.4696 247.04688 278.4696ZM255.35938 279.4071Q255.03125 279.81335 254.54688 280.06335Q254.07812 280.29773 253.51562 280.29773Q252.78125 280.29773 252.23438 279.93835Q251.6875 279.57898 251.39062 278.92273Q251.09375 278.25085 251.09375 277.45398Q251.09375 276.61023 251.40625 275.92273Q251.73438 275.23523 252.32812 274.87585Q252.9375 274.50085 253.73438 274.50085Q255.0 274.50085 255.71875 275.45398Q256.45312 276.4071 256.45312 278.0321L256.45312 278.3446Q256.45312 280.8446 255.46875 281.98523Q254.48438 283.12585 252.5 283.1571L252.28125 283.1571L252.28125 282.25085L252.51562 282.25085Q253.85938 282.2196 254.57812 281.54773Q255.29688 280.87585 255.35938 279.4071ZM253.6875 279.4071Q254.23438 279.4071 254.6875 279.07898Q255.15625 278.73523 255.375 278.25085L255.375 277.81335Q255.375 276.75085 254.90625 276.07898Q254.4375 275.4071 253.73438 275.4071Q253.01562 275.4071 252.57812 275.95398Q252.15625 276.50085 252.15625 277.4071Q252.15625 278.2821 252.5625 278.8446Q252.98438 279.4071 253.6875 279.4071Z" fill-rule="nonzero"/><path stroke="#ffffff" stroke-width="3.0" stroke-linejoin="round" stroke-linecap="round" d="M326.76562 280.31854L325.6875 280.31854L325.6875 273.0998L323.5 273.89667L323.5 272.9123L326.60938 271.74042L326.76562 271.74042L326.76562 280.31854ZM338.71875 272.39667L335.1875 280.31854L334.04688 280.31854L337.5625 272.67792L332.95312 272.67792L332.95312 271.7873L338.71875 271.7873L338.71875 272.39667ZM345.79688 280.31854L340.20312 280.31854L340.20312 279.5373L343.15625 276.25604Q343.8125 275.50604 344.0625 275.05292Q344.3125 274.58417 344.3125 274.08417Q344.3125 273.4123 343.90625 272.99042Q343.51562 272.55292 342.82812 272.55292Q342.03125 272.55292 341.57812 273.02167Q341.125 273.4748 341.125 274.30292L340.04688 274.30292Q340.04688 273.11542 340.79688 272.39667Q341.5625 271.6623 342.82812 271.6623Q344.03125 271.6623 344.71875 272.2873Q345.40625 272.9123 345.40625 273.95917Q345.40625 275.20917 343.79688 276.95917L341.51562 279.42792L345.79688 279.42792L345.79688 280.31854ZM350.76562 280.31854L349.6875 280.31854L349.6875 273.0998L347.5 273.89667L347.5 272.9123L350.60938 271.74042L350.76562 271.74042L350.76562 280.31854Z" fill-rule="nonzero"/><path fill="#4285f4" d="M326.76562 280.31854L325.6875 280.31854L325.6875 273.0998L323.5 273.89667L323.5 272.9123L326.60938 271.74042L326.76562 271.74042L326.76562 280.31854ZM338.71875 272.39667L335.1875 280.31854L334.04688 280.31854L337.5625 272.67792L332.95312 272.67792L332.95312 271.7873L338.71875 271.7873L338.71875 272.39667ZM345.79688 280.31854L340.20312 280.31854L340.20312 279.5373L343.15625 276.25604Q343.8125 275.50604 344.0625 275.05292Q344.3125 274.58417 344.3125 274.08417Q344.3125 273.4123 343.90625 272.99042Q343.51562 272.55292 342.82812 272.55292Q342.03125 272.55292 341.57812 273.02167Q341.125 273.4748 341.125 274.30292L340.04688 274.30292Q340.04688 273.11542 340.79688 272.39667Q341.5625 271.6623 342.82812 271.6623Q344.03125 271.6623 344.71875 272.2873Q345.40625 272.9123 345.40625 273.95917Q345.40625 275.20917 343.79688 276.95917L341.51562 279.42792L345.79688 279.42792L345.79688 280.31854ZM350.76562 280.31854L349.6875 280.31854L349.6875 273.0998L347.5 273.89667L347.5 272.9123L350.60938 271.74042L350.76562 271.74042L350.76562 280.31854Z" fill-rule="nonzero"/><path stroke="#ffffff" stroke-width="3.0" stroke-linejoin="round" stroke-linecap="round" d="M414.70312 264.88885L415.14062 260.63885L419.51562 260.63885L419.51562 261.63885L416.0625 261.63885L415.79688 263.96698Q416.4375 263.59198 417.23438 263.59198Q418.39062 263.59198 419.07812 264.37323Q419.76562 265.13885 419.76562 266.45135Q419.76562 267.76385 419.04688 268.52948Q418.34375 269.2951 417.0625 269.2951Q415.9375 269.2951 415.21875 268.6701Q414.5 268.02948 414.40625 266.9201L415.42188 266.9201Q415.53125 267.65448 415.95312 268.02948Q416.375 268.40448 417.0625 268.40448Q417.8125 268.40448 418.25 267.88885Q418.6875 267.37323 418.6875 266.46698Q418.6875 265.6076 418.21875 265.09198Q417.75 264.57635 416.96875 264.57635Q416.26562 264.57635 415.85938 264.87323L415.57812 265.1076L414.70312 264.88885ZM428.78125 266.31073L429.96875 266.31073L429.96875 267.18573L428.78125 267.18573L428.78125 269.1701L427.70312 269.1701L427.70312 267.18573L423.8125 267.18573L423.8125 266.5451L427.625 260.63885L428.78125 260.63885L428.78125 266.31073ZM425.04688 266.31073L427.70312 266.31073L427.70312 262.12323L427.5625 262.3576L425.04688 266.31073ZM435.46875 260.63885L435.46875 261.5451L435.26562 261.5451Q434.0 261.57635 433.25 262.31073Q432.5 263.02948 432.375 264.34198Q433.0625 263.57635 434.21875 263.57635Q435.32812 263.57635 436.0 264.3576Q436.67188 265.13885 436.67188 266.38885Q436.67188 267.70135 435.95312 268.49823Q435.23438 269.2951 434.01562 269.2951Q432.79688 269.2951 432.03125 268.3576Q431.28125 267.40448 431.28125 265.9201L431.28125 265.51385Q431.28125 263.15448 432.28125 261.90448Q433.28125 260.65448 435.26562 260.63885L435.46875 260.63885ZM434.04688 264.4826Q433.48438 264.4826 433.01562 264.81073Q432.54688 265.13885 432.35938 265.65448L432.35938 266.0451Q432.35938 267.1076 432.82812 267.74823Q433.3125 268.38885 434.01562 268.38885Q434.75 268.38885 435.17188 267.8576Q435.59375 267.31073 435.59375 266.43573Q435.59375 265.56073 435.17188 265.02948Q434.75 264.4826 434.04688 264.4826ZM443.5625 265.52948Q443.5625 267.43573 442.90625 268.37323Q442.26562 269.2951 440.875 269.2951Q439.51562 269.2951 438.85938 268.38885Q438.20312 267.4826 438.17188 265.6701L438.17188 264.2326Q438.17188 262.34198 438.8125 261.43573Q439.46875 260.51385 440.85938 260.51385Q442.23438 260.51385 442.89062 261.40448Q443.54688 262.27948 443.5625 264.12323L443.5625 265.52948ZM442.46875 264.0451Q442.46875 262.6701 442.07812 262.0451Q441.70312 261.40448 440.85938 261.40448Q440.03125 261.40448 439.64062 262.0451Q439.26562 262.6701 439.26562 263.96698L439.26562 265.70135Q439.26562 267.07635 439.65625 267.74823Q440.0625 268.40448 440.875 268.40448Q441.67188 268.40448 442.0625 267.77948Q442.45312 267.15448 442.46875 265.82635L442.46875 264.0451Z" fill-rule="nonzero"/><path fill="#4285f4" d="M414.70312 264.88885L415.14062 260.63885L419.51562 260.63885L419.51562 261.63885L416.0625 261.63885L415.79688 263.96698Q416.4375 263.59198 417.23438 263.59198Q418.39062 263.59198 419.07812 264.37323Q419.76562 265.13885 419.76562 266.45135Q419.76562 267.76385 419.04688 268.52948Q418.34375 269.2951 417.0625 269.2951Q415.9375 269.2951 415.21875 268.6701Q414.5 268.02948 414.40625 266.9201L415.42188 266.9201Q415.53125 267.65448 415.95312 268.02948Q416.375 268.40448 417.0625 268.40448Q417.8125 268.40448 418.25 267.88885Q418.6875 267.37323 418.6875 266.46698Q418.6875 265.6076 418.21875 265.09198Q417.75 264.57635 416.96875 264.57635Q416.26562 264.57635 415.85938 264.87323L415.57812 265.1076L414.70312 264.88885ZM428.78125 266.31073L429.96875 266.31073L429.96875 267.18573L428.78125 267.18573L428.78125 269.1701L427.70312 269.1701L427.70312 267.18573L423.8125 267.18573L423.8125 266.5451L427.625 260.63885L428.78125 260.63885L428.78125 266.31073ZM425.04688 266.31073L427.70312 266.31073L427.70312 262.12323L427.5625 262.3576L425.04688 266.31073ZM435.46875 260.63885L435.46875 261.5451L435.26562 261.5451Q434.0 261.57635 433.25 262.31073Q432.5 263.02948 432.375 264.34198Q433.0625 263.57635 434.21875 263.57635Q435.32812 263.57635 436.0 264.3576Q436.67188 265.13885 436.67188 266.38885Q436.67188 267.70135 435.95312 268.49823Q435.23438 269.2951 434.01562 269.2951Q432.79688 269.2951 432.03125 268.3576Q431.28125 267.40448 431.28125 265.9201L431.28125 265.51385Q431.28125 263.15448 432.28125 261.90448Q433.28125 260.65448 435.26562 260.63885L435.46875 260.63885ZM434.04688 264.4826Q433.48438 264.4826 433.01562 264.81073Q432.54688 265.13885 432.35938 265.65448L432.35938 266.0451Q432.35938 267.1076 432.82812 267.74823Q433.3125 268.38885 434.01562 268.38885Q434.75 268.38885 435.17188 267.8576Q435.59375 267.31073 435.59375 266.43573Q435.59375 265.56073 435.17188 265.02948Q434.75 264.4826 434.04688 264.4826ZM443.5625 265.52948Q443.5625 267.43573 442.90625 268.37323Q442.26562 269.2951 440.875 269.2951Q439.51562 269.2951 438.85938 268.38885Q438.20312 267.4826 438.17188 265.6701L438.17188 264.2326Q438.17188 262.34198 438.8125 261.43573Q439.46875 260.51385 440.85938 260.51385Q442.23438 260.51385 442.89062 261.40448Q443.54688 262.27948 443.5625 264.12323L443.5625 265.52948ZM442.46875 264.0451Q442.46875 262.6701 442.07812 262.0451Q441.70312 261.40448 440.85938 261.40448Q440.03125 261.40448 439.64062 262.0451Q439.26562 262.6701 439.26562 263.96698L439.26562 265.70135Q439.26562 267.07635 439.65625 267.74823Q440.0625 268.40448 440.875 268.40448Q441.67188 268.40448 442.0625 267.77948Q442.45312 267.15448 442.46875 265.82635L442.46875 264.0451Z" fill-rule="nonzero"/><path stroke="#ffffff" stroke-width="3.0" stroke-linejoin="round" stroke-linecap="round" d="M507.21875 67.177505L503.6875 75.09938L502.54688 75.09938L506.0625 67.458755L501.45312 67.458755L501.45312 66.56813L507.21875 66.56813L507.21875 67.177505ZM514.0625 71.458755Q514.0625 73.365005 513.40625 74.302505Q512.7656 75.22438 511.375 75.22438Q510.01562 75.22438 509.35938 74.31813Q508.70312 73.41188 508.67188 71.59938L508.67188 70.16188Q508.67188 68.271255 509.3125 67.365005Q509.96875 66.44313 511.35938 66.44313Q512.7344 66.44313 513.3906 67.333755Q514.0469 68.208755 514.0625 70.052505L514.0625 71.458755ZM512.96875 69.97438Q512.96875 68.59938 512.5781 67.97438Q512.2031 67.333755 511.35938 67.333755Q510.53125 67.333755 510.14062 67.97438Q509.76562 68.59938 509.76562 69.896255L509.76562 71.63063Q509.76562 73.00563 510.15625 73.677505Q510.5625 74.333755 511.375 74.333755Q512.1719 74.333755 512.5625 73.708755Q512.9531 73.083755 512.96875 71.75563L512.96875 69.97438ZM519.2031 70.81813L519.6406 66.56813L524.0156 66.56813L524.0156 67.56813L520.5625 67.56813L520.2969 69.896255Q520.9375 69.521255 521.7344 69.521255Q522.8906 69.521255 523.5781 70.302505Q524.2656 71.06813 524.2656 72.38063Q524.2656 73.69313 523.5469 74.458755Q522.84375 75.22438 521.5625 75.22438Q520.4375 75.22438 519.71875 74.59938Q519.0 73.958755 518.90625 72.84938L519.9219 72.84938Q520.03125 73.583755 520.4531 73.958755Q520.875 74.333755 521.5625 74.333755Q522.3125 74.333755 522.75 73.81813Q523.1875 73.302505 523.1875 72.396255Q523.1875 71.53688 522.71875 71.021255Q522.25 70.50563 521.46875 70.50563Q520.7656 70.50563 520.3594 70.802505L520.0781 71.03688L519.2031 70.81813ZM530.28125 72.240005L531.46875 72.240005L531.46875 73.115005L530.28125 73.115005L530.28125 75.09938L529.2031 75.09938L529.2031 73.115005L525.3125 73.115005L525.3125 72.47438L529.125 66.56813L530.28125 66.56813L530.28125 72.240005ZM526.5469 72.240005L529.2031 72.240005L529.2031 68.052505L529.0625 68.28688L526.5469 72.240005ZM537.8906 68.78688Q537.8906 69.427505 537.5469 69.927505Q537.2031 70.427505 536.6406 70.708755Q537.2969 70.990005 537.6875 71.552505Q538.0781 72.09938 538.0781 72.802505Q538.0781 73.896255 537.3281 74.56813Q536.59375 75.22438 535.375 75.22438Q534.1406 75.22438 533.3906 74.56813Q532.65625 73.896255 532.65625 72.802505Q532.65625 72.09938 533.03125 71.552505Q533.40625 70.990005 534.0781 70.708755Q533.5156 70.427505 533.1875 69.927505Q532.8594 69.427505 532.8594 68.78688Q532.8594 67.708755 533.5469 67.083755Q534.2344 66.44313 535.375 66.44313Q536.5 66.44313 537.1875 67.083755Q537.8906 67.708755 537.8906 68.78688ZM537.0 72.771255Q537.0 72.052505 536.5469 71.615005Q536.09375 71.16188 535.3594 71.16188Q534.625 71.16188 534.1719 71.615005Q533.7344 72.052505 533.7344 72.78688Q533.7344 73.50563 534.1719 73.927505Q534.6094 74.333755 535.375 74.333755Q536.125 74.333755 536.5625 73.91188Q537.0 73.490005 537.0 72.771255ZM535.375 67.333755Q534.7344 67.333755 534.3281 67.740005Q533.9375 68.13063 533.9375 68.81813Q533.9375 69.458755 534.3281 69.865005Q534.71875 70.271255 535.3594 70.271255Q536.0156 70.271255 536.40625 69.865005Q536.7969 69.458755 536.7969 68.81813Q536.7969 68.16188 536.3906 67.75563Q535.9844 67.333755 535.375 67.333755Z" fill-rule="nonzero"/><path fill="#4285f4" d="M507.21875 67.177505L503.6875 75.09938L502.54688 75.09938L506.0625 67.458755L501.45312 67.458755L501.45312 66.56813L507.21875 66.56813L507.21875 67.177505ZM514.0625 71.458755Q514.0625 73.365005 513.40625 74.302505Q512.7656 75.22438 511.375 75.22438Q510.01562 75.22438 509.35938 74.31813Q508.70312 73.41188 508.67188 71.59938L508.67188 70.16188Q508.67188 68.271255 509.3125 67.365005Q509.96875 66.44313 511.35938 66.44313Q512.7344 66.44313 513.3906 67.333755Q514.0469 68.208755 514.0625 70.052505L514.0625 71.458755ZM512.96875 69.97438Q512.96875 68.59938 512.5781 67.97438Q512.2031 67.333755 511.35938 67.333755Q510.53125 67.333755 510.14062 67.97438Q509.76562 68.59938 509.76562 69.896255L509.76562 71.63063Q509.76562 73.00563 510.15625 73.677505Q510.5625 74.333755 511.375 74.333755Q512.1719 74.333755 512.5625 73.708755Q512.9531 73.083755 512.96875 71.75563L512.96875 69.97438ZM519.2031 70.81813L519.6406 66.56813L524.0156 66.56813L524.0156 67.56813L520.5625 67.56813L520.2969 69.896255Q520.9375 69.521255 521.7344 69.521255Q522.8906 69.521255 523.5781 70.302505Q524.2656 71.06813 524.2656 72.38063Q524.2656 73.69313 523.5469 74.458755Q522.84375 75.22438 521.5625 75.22438Q520.4375 75.22438 519.71875 74.59938Q519.0 73.958755 518.90625 72.84938L519.9219 72.84938Q520.03125 73.583755 520.4531 73.958755Q520.875 74.333755 521.5625 74.333755Q522.3125 74.333755 522.75 73.81813Q523.1875 73.302505 523.1875 72.396255Q523.1875 71.53688 522.71875 71.021255Q522.25 70.50563 521.46875 70.50563Q520.7656 70.50563 520.3594 70.802505L520.0781 71.03688L519.2031 70.81813ZM530.28125 72.240005L531.46875 72.240005L531.46875 73.115005L530.28125 73.115005L530.28125 75.09938L529.2031 75.09938L529.2031 73.115005L525.3125 73.115005L525.3125 72.47438L529.125 66.56813L530.28125 66.56813L530.28125 72.240005ZM526.5469 72.240005L529.2031 72.240005L529.2031 68.052505L529.0625 68.28688L526.5469 72.240005ZM537.8906 68.78688Q537.8906 69.427505 537.5469 69.927505Q537.2031 70.427505 536.6406 70.708755Q537.2969 70.990005 537.6875 71.552505Q538.0781 72.09938 538.0781 72.802505Q538.0781 73.896255 537.3281 74.56813Q536.59375 75.22438 535.375 75.22438Q534.1406 75.22438 533.3906 74.56813Q532.65625 73.896255 532.65625 72.802505Q532.65625 72.09938 533.03125 71.552505Q533.40625 70.990005 534.0781 70.708755Q533.5156 70.427505 533.1875 69.927505Q532.8594 69.427505 532.8594 68.78688Q532.8594 67.708755 533.5469 67.083755Q534.2344 66.44313 535.375 66.44313Q536.5 66.44313 537.1875 67.083755Q537.8906 67.708755 537.8906 68.78688ZM537.0 72.771255Q537.0 72.052505 536.5469 71.615005Q536.09375 71.16188 535.3594 71.16188Q534.625 71.16188 534.1719 71.615005Q533.7344 72.052505 533.7344 72.78688Q533.7344 73.50563 534.1719 73.927505Q534.6094 74.333755 535.375 74.333755Q536.125 74.333755 536.5625 73.91188Q537.0 73.490005 537.0 72.771255ZM535.375 67.333755Q534.7344 67.333755 534.3281 67.740005Q533.9375 68.13063 533.9375 68.81813Q533.9375 69.458755 534.3281 69.865005Q534.71875 70.271255 535.3594 70.271255Q536.0156 70.271255 536.40625 69.865005Q536.7969 69.458755 536.7969 68.81813Q536.7969 68.16188 536.3906 67.75563Q535.9844 67.333755 535.375 67.333755Z" fill-rule="nonzero"/><path fill="#000000" d="M320.375 349.45L320.375 340.85626L321.51562 340.85626L321.51562 348.4344L325.75 348.4344L325.75 349.45L320.375 349.45ZM327.29688 342.075L327.29688 340.85626L328.35938 340.85626L328.35938 342.075L327.29688 342.075ZM327.29688 349.45L327.29688 343.23126L328.35938 343.23126L328.35938 349.45L327.29688 349.45ZM331.26562 349.45L330.28125 349.45L330.28125 340.85626L331.34375 340.85626L331.34375 343.91876Q332.01562 343.09064 333.04688 343.09064Q333.625 343.09064 334.125 343.325Q334.64062 343.54376 334.96875 343.96564Q335.3125 344.3875 335.5 344.98126Q335.6875 345.575 335.6875 346.2469Q335.6875 347.84064 334.89062 348.71564Q334.09375 349.59064 333.0 349.59064Q331.89062 349.59064 331.26562 348.66876L331.26562 349.45ZM331.25 346.29376Q331.25 347.40314 331.5625 347.90314Q332.0625 348.71564 332.90625 348.71564Q333.59375 348.71564 334.09375 348.1219Q334.60938 347.52814 334.60938 346.325Q334.60938 345.10626 334.125 344.52814Q333.64062 343.95 332.95312 343.95Q332.26562 343.95 331.75 344.5594Q331.25 345.15314 331.25 346.29376ZM337.28125 349.45L337.28125 343.23126L338.23438 343.23126L338.23438 344.16876Q338.59375 343.5125 338.89062 343.3094Q339.20312 343.09064 339.57812 343.09064Q340.10938 343.09064 340.65625 343.41876L340.29688 344.40314Q339.90625 344.16876 339.53125 344.16876Q339.17188 344.16876 338.89062 344.3875Q338.625 344.59064 338.51562 344.96564Q338.32812 345.52814 338.32812 346.1844L338.32812 349.45L337.28125 349.45ZM345.35938 348.6844Q344.76562 349.1844 344.21875 349.3875Q343.6875 349.59064 343.0625 349.59064Q342.03125 349.59064 341.48438 349.09064Q340.9375 348.59064 340.9375 347.8094Q340.9375 347.35626 341.14062 346.98126Q341.34375 346.59064 341.6875 346.3719Q342.03125 346.1375 342.45312 346.02814Q342.75 345.9344 343.39062 345.85626Q344.65625 345.71564 345.26562 345.4969Q345.26562 345.27814 345.26562 345.23126Q345.26562 344.575 344.96875 344.3094Q344.5625 343.96564 343.76562 343.96564Q343.03125 343.96564 342.67188 344.23126Q342.3125 344.48126 342.14062 345.1375L341.10938 344.9969Q341.25 344.34064 341.57812 343.9344Q341.90625 343.52814 342.51562 343.3094Q343.125 343.09064 343.92188 343.09064Q344.71875 343.09064 345.21875 343.27814Q345.71875 343.46564 345.95312 343.7469Q346.1875 344.02814 346.28125 344.46564Q346.32812 344.73126 346.32812 345.4344L346.32812 346.84064Q346.32812 348.3094 346.39062 348.7Q346.46875 349.09064 346.67188 349.45L345.5625 349.45Q345.40625 349.1219 345.35938 348.6844ZM345.26562 346.325Q344.6875 346.5594 343.54688 346.73126Q342.89062 346.825 342.625 346.95Q342.35938 347.0594 342.20312 347.27814Q342.0625 347.4969 342.0625 347.77814Q342.0625 348.2 342.375 348.48126Q342.70312 348.7625 343.3125 348.7625Q343.92188 348.7625 344.39062 348.4969Q344.875 348.23126 345.09375 347.7625Q345.26562 347.40314 345.26562 346.71564L345.26562 346.325ZM348.28125 349.45L348.28125 343.23126L349.23438 343.23126L349.23438 344.16876Q349.59375 343.5125 349.89062 343.3094Q350.20312 343.09064 350.57812 343.09064Q351.10938 343.09064 351.65625 343.41876L351.29688 344.40314Q350.90625 344.16876 350.53125 344.16876Q350.17188 344.16876 349.89062 344.3875Q349.625 344.59064 349.51562 344.96564Q349.32812 345.52814 349.32812 346.1844L349.32812 349.45L348.28125 349.45ZM352.25 351.84064L352.125 350.85626Q352.46875 350.95 352.73438 350.95Q353.07812 350.95 353.28125 350.825Q353.5 350.71564 353.64062 350.5125Q353.73438 350.34064 353.96875 349.71564Q353.98438 349.6375 354.0625 349.46564L351.6875 343.23126L352.82812 343.23126L354.125 346.825Q354.375 347.5125 354.57812 348.27814Q354.76562 347.54376 355.01562 346.85626L356.34375 343.23126L357.39062 343.23126L355.03125 349.5594Q354.64062 350.575 354.4375 350.96564Q354.15625 351.4969 353.78125 351.73126Q353.42188 351.98126 352.92188 351.98126Q352.625 351.98126 352.25 351.84064Z" fill-rule="nonzero"/><path fill="#000000" d="M29.550013 227.74583L20.956263 227.74583L20.956263 223.93333Q20.956263 222.77708 21.190638 222.18333Q21.425013 221.58958 22.018763 221.23021Q22.596888 220.87083 23.300013 220.87083Q24.221888 220.87083 24.846888 221.46458Q25.471888 222.05833 25.643763 223.29271Q25.862513 222.83958 26.065638 222.60521Q26.518763 222.10521 27.206263 221.66771L29.550013 220.16771L29.550013 221.60521L27.768763 222.73021Q26.987513 223.23021 26.581263 223.55833Q26.175013 223.87083 26.018763 224.13646Q25.846888 224.38646 25.768763 224.65208Q25.737513 224.83958 25.737513 225.27708L25.737513 226.60521L29.550013 226.60521L29.550013 227.74583ZM24.753138 226.60521L24.753138 224.15208Q24.753138 223.38646 24.596888 222.94896Q24.425013 222.49583 24.081263 222.27708Q23.721888 222.04271 23.300013 222.04271Q22.690638 222.04271 22.300013 222.49583Q21.909388 222.93333 21.909388 223.88646L21.909388 226.60521L24.753138 226.60521ZM27.550013 214.63646L27.675013 213.54271Q28.628138 213.79271 29.159388 214.49583Q29.690638 215.19896 29.690638 216.27708Q29.690638 217.63646 28.846888 218.44896Q28.003138 219.24583 26.487513 219.24583Q24.925013 219.24583 24.065638 218.43333Q23.190638 217.62083 23.190638 216.33958Q23.190638 215.08958 24.034388 214.30833Q24.878138 213.51146 26.425013 213.51146Q26.518763 213.51146 26.706263 213.51146L26.706263 218.15208Q27.737513 218.08958 28.284388 217.57396Q28.815638 217.05833 28.815638 216.27708Q28.815638 215.69896 28.518763 215.29271Q28.206263 214.87083 27.550013 214.63646ZM25.846888 218.08958L25.846888 214.62083Q25.050013 214.68333 24.659388 215.01146Q24.050013 215.52708 24.050013 216.32396Q24.050013 217.05833 24.534388 217.55833Q25.018763 218.04271 25.846888 218.08958ZM27.690638 212.30833L27.534388 211.27708Q28.159388 211.18333 28.487513 210.79271Q28.815638 210.38646 28.815638 209.65208Q28.815638 208.93333 28.534388 208.58958Q28.237513 208.23021 27.831263 208.23021Q27.471888 208.23021 27.268763 208.54271Q27.128138 208.76146 26.909388 209.62083Q26.612513 210.77708 26.409388 211.23021Q26.190638 211.66771 25.815638 211.90208Q25.440638 212.13646 24.971888 212.13646Q24.565638 212.13646 24.206263 211.94896Q23.846888 211.76146 23.612513 211.43333Q23.440638 211.18333 23.315638 210.76146Q23.190638 210.33958 23.190638 209.83958Q23.190638 209.12083 23.409388 208.57396Q23.612513 208.01146 23.971888 207.74583Q24.331263 207.48021 24.925013 207.38646L25.065638 208.41771Q24.596888 208.48021 24.331263 208.82396Q24.050013 209.15208 24.050013 209.77708Q24.050013 210.49583 24.300013 210.80833Q24.534388 211.12083 24.862513 211.12083Q25.065638 211.12083 25.221888 210.99583Q25.393763 210.85521 25.503138 210.58958Q25.565638 210.43333 25.768763 209.65208Q26.081263 208.52708 26.268763 208.08958Q26.456263 207.65208 26.815638 207.40208Q27.175013 207.15208 27.721888 207.15208Q28.253138 207.15208 28.721888 207.46458Q29.175013 207.76146 29.440638 208.33958Q29.690638 208.91771 29.690638 209.65208Q29.690638 210.87083 29.190638 211.51146Q28.675013 212.13646 27.690638 212.30833ZM29.550013 200.80833L28.628138 200.80833Q29.690638 201.54271 29.690638 202.79271Q29.690638 203.33958 29.487513 203.82396Q29.268763 204.29271 28.956263 204.52708Q28.628138 204.76146 28.159388 204.85521Q27.862513 204.91771 27.175013 204.91771L23.331263 204.91771L23.331263 203.85521L26.784388 203.85521Q27.596888 203.85521 27.893763 203.79271Q28.300013 203.69896 28.550013 203.38646Q28.784388 203.05833 28.784388 202.57396Q28.784388 202.10521 28.550013 201.69896Q28.300013 201.27708 27.878138 201.10521Q27.456263 200.91771 26.659388 200.91771L23.331263 200.91771L23.331263 199.87083L29.550013 199.87083L29.550013 200.80833ZM29.550013 197.91771L20.956263 197.91771L20.956263 196.85521L29.550013 196.85521L29.550013 197.91771ZM28.612513 192.58958L29.534388 192.43333Q29.628138 192.88646 29.628138 193.23021Q29.628138 193.80833 29.456263 194.12083Q29.268763 194.43333 28.971888 194.57396Q28.675013 194.69896 27.721888 194.69896L24.143763 194.69896L24.143763 195.46458L23.331263 195.46458L23.331263 194.69896L21.784388 194.69896L21.159388 193.65208L23.331263 193.65208L23.331263 192.58958L24.143763 192.58958L24.143763 193.65208L27.784388 193.65208Q28.237513 193.65208 28.362513 193.60521Q28.487513 193.54271 28.565638 193.41771Q28.643763 193.29271 28.643763 193.05833Q28.643763 192.87083 28.612513 192.58958ZM31.940638 188.87083L20.956263 188.87083L20.956263 186.54271L21.831263 186.54271L21.831263 187.80833L31.065638 187.80833L31.065638 186.54271L31.940638 186.54271L31.940638 188.87083ZM26.440638 186.27708Q24.706263 186.27708 23.878138 185.32396Q23.190638 184.52708 23.190638 183.37083Q23.190638 182.08958 24.034388 181.27708Q24.862513 180.44896 26.346888 180.44896Q27.550013 180.44896 28.237513 180.80833Q28.925013 181.16771 29.315638 181.87083Q29.690638 182.55833 29.690638 183.37083Q29.690638 184.66771 28.862513 185.48021Q28.018763 186.27708 26.440638 186.27708ZM26.440638 185.19896Q27.628138 185.19896 28.221888 184.68333Q28.815638 184.15208 28.815638 183.37083Q28.815638 182.57396 28.221888 182.05833Q27.628138 181.54271 26.409388 181.54271Q25.253138 181.54271 24.659388 182.07396Q24.065638 182.58958 24.065638 183.37083Q24.065638 184.15208 24.659388 184.68333Q25.237513 185.19896 26.440638 185.19896ZM31.940638 178.88646L23.331263 178.88646L23.331263 177.93333L24.128138 177.93333Q23.659388 177.58958 23.425013 177.16771Q23.190638 176.73021 23.190638 176.12083Q23.190638 175.32396 23.596888 174.71458Q24.003138 174.10521 24.753138 173.80833Q25.503138 173.49583 26.393763 173.49583Q27.346888 173.49583 28.112513 173.83958Q28.878138 174.16771 29.284388 174.82396Q29.690638 175.48021 29.690638 176.19896Q29.690638 176.73021 29.471888 177.15208Q29.237513 177.57396 28.909388 177.83958L31.940638 177.83958L31.940638 178.88646ZM26.471888 177.93333Q27.675013 177.93333 28.253138 177.44896Q28.815638 176.96458 28.815638 176.27708Q28.815638 175.57396 28.221888 175.07396Q27.628138 174.57396 26.378138 174.57396Q25.190638 174.57396 24.612513 175.05833Q24.018763 175.54271 24.018763 176.23021Q24.018763 176.90208 24.643763 177.41771Q25.268763 177.93333 26.471888 177.93333ZM29.690638 172.68333L20.815638 170.19896L20.815638 169.35521L29.690638 171.83958L29.690638 172.68333ZM27.690638 169.30833L27.534388 168.27708Q28.159388 168.18333 28.487513 167.79271Q28.815638 167.38646 28.815638 166.65208Q28.815638 165.93333 28.534388 165.58958Q28.237513 165.23021 27.831263 165.23021Q27.471888 165.23021 27.268763 165.54271Q27.128138 165.76146 26.909388 166.62083Q26.612513 167.77708 26.409388 168.23021Q26.190638 168.66771 25.815638 168.90208Q25.440638 169.13646 24.971888 169.13646Q24.565638 169.13646 24.206263 168.94896Q23.846888 168.76146 23.612513 168.43333Q23.440638 168.18333 23.315638 167.76146Q23.190638 167.33958 23.190638 166.83958Q23.190638 166.12083 23.409388 165.57396Q23.612513 165.01146 23.971888 164.74583Q24.331263 164.48021 24.925013 164.38646L25.065638 165.41771Q24.596888 165.48021 24.331263 165.82396Q24.050013 166.15208 24.050013 166.77708Q24.050013 167.49583 24.300013 167.80833Q24.534388 168.12083 24.862513 168.12083Q25.065638 168.12083 25.221888 167.99583Q25.393763 167.85521 25.503138 167.58958Q25.565638 167.43333 25.768763 166.65208Q26.081263 165.52708 26.268763 165.08958Q26.456263 164.65208 26.815638 164.40208Q27.175013 164.15208 27.721888 164.15208Q28.253138 164.15208 28.721888 164.46458Q29.175013 164.76146 29.440638 165.33958Q29.690638 165.91771 29.690638 166.65208Q29.690638 167.87083 29.190638 168.51146Q28.675013 169.13646 27.690638 169.30833ZM27.550013 157.63646L27.675013 156.54271Q28.628138 156.79271 29.159388 157.49583Q29.690638 158.19896 29.690638 159.27708Q29.690638 160.63646 28.846888 161.44896Q28.003138 162.24583 26.487513 162.24583Q24.925013 162.24583 24.065638 161.43333Q23.190638 160.62083 23.190638 159.33958Q23.190638 158.08958 24.034388 157.30833Q24.878138 156.51146 26.425013 156.51146Q26.518763 156.51146 26.706263 156.51146L26.706263 161.15208Q27.737513 161.08958 28.284388 160.57396Q28.815638 160.05833 28.815638 159.27708Q28.815638 158.69896 28.518763 158.29271Q28.206263 157.87083 27.550013 157.63646ZM25.846888 161.08958L25.846888 157.62083Q25.050013 157.68333 24.659388 158.01146Q24.050013 158.52708 24.050013 159.32396Q24.050013 160.05833 24.534388 160.55833Q25.018763 161.04271 25.846888 161.08958ZM27.268763 150.82396L27.409388 149.79271Q28.471888 149.96458 29.081263 150.66771Q29.690638 151.37083 29.690638 152.38646Q29.690638 153.66771 28.862513 154.44896Q28.018763 155.21458 26.456263 155.21458Q25.456263 155.21458 24.706263 154.88646Q23.940638 154.54271 23.565638 153.87083Q23.190638 153.18333 23.190638 152.37083Q23.190638 151.37083 23.706263 150.73021Q24.206263 150.07396 25.159388 149.88646L25.315638 150.91771Q24.690638 151.05833 24.378138 151.43333Q24.050013 151.80833 24.050013 152.33958Q24.050013 153.13646 24.628138 153.63646Q25.190638 154.13646 26.425013 154.13646Q27.690638 154.13646 28.253138 153.65208Q28.815638 153.16771 28.815638 152.40208Q28.815638 151.77708 28.440638 151.37083Q28.065638 150.94896 27.268763 150.82396ZM31.940638 147.12083L31.940638 149.44896L31.065638 149.44896L31.065638 148.18333L21.831263 148.18333L21.831263 149.44896L20.956263 149.44896L20.956263 147.12083L31.940638 147.12083Z" fill-rule="nonzero"/><path fill="#000000" d="M82.05 300.21564Q82.05 298.6844 82.3625 297.7625Q82.675 296.825 83.28438 296.325Q83.90938 295.825 84.84688 295.825Q85.53438 295.825 86.05 296.10626Q86.58125 296.3875 86.925 296.91876Q87.26875 297.4344 87.45625 298.1844Q87.64375 298.9344 87.64375 300.21564Q87.64375 301.73126 87.33125 302.65314Q87.03438 303.575 86.40938 304.09064Q85.8 304.59064 84.84688 304.59064Q83.6125 304.59064 82.89375 303.7Q82.05 302.6375 82.05 300.21564ZM83.12813 300.21564Q83.12813 302.325 83.62813 303.02814Q84.12813 303.73126 84.84688 303.73126Q85.58125 303.73126 86.06563 303.02814Q86.56563 302.325 86.56563 300.21564Q86.56563 298.09064 86.06563 297.40314Q85.58125 296.7 84.83125 296.7Q84.1125 296.7 83.675 297.3094Q83.12813 298.09064 83.12813 300.21564Z" fill-rule="nonzero"/><path fill="#000000" d="M56.596874 243.80104L56.596874 244.81667L50.909374 244.81667Q50.909374 244.44167 51.034374 244.08229Q51.253124 243.50417 51.721874 242.94167Q52.20625 242.37917 53.1125 241.64479Q54.51875 240.48854 55.003124 239.81667Q55.503124 239.14479 55.503124 238.55104Q55.503124 237.92604 55.05 237.50417Q54.596874 237.06667 53.878124 237.06667Q53.1125 237.06667 52.659374 237.51979Q52.20625 237.97292 52.190624 238.78542L51.1125 238.67604Q51.221874 237.45729 51.940624 236.83229Q52.675 236.19167 53.909374 236.19167Q55.14375 236.19167 55.8625 236.87917Q56.58125 237.56667 56.58125 238.58229Q56.58125 239.09792 56.3625 239.59792Q56.159374 240.08229 55.659374 240.64479Q55.175 241.19167 54.05 242.14479Q53.096874 242.94167 52.815624 243.23854Q52.55 243.51979 52.378124 243.80104L56.596874 243.80104ZM58.05 240.58229Q58.05 239.05104 58.3625 238.12917Q58.675 237.19167 59.284374 236.69167Q59.909374 236.19167 60.846874 236.19167Q61.534374 236.19167 62.05 236.47292Q62.58125 236.75417 62.925 237.28542Q63.26875 237.80104 63.45625 238.55104Q63.64375 239.30104 63.64375 240.58229Q63.64375 242.09792 63.33125 243.01979Q63.034374 243.94167 62.409374 244.45729Q61.8 244.95729 60.846874 244.95729Q59.6125 244.95729 58.89375 244.06667Q58.05 243.00417 58.05 240.58229ZM59.128124 240.58229Q59.128124 242.69167 59.628124 243.39479Q60.128124 244.09792 60.846874 244.09792Q61.58125 244.09792 62.065624 243.39479Q62.565624 242.69167 62.565624 240.58229Q62.565624 238.45729 62.065624 237.76979Q61.58125 237.06667 60.83125 237.06667Q60.1125 237.06667 59.675 237.67604Q59.128124 238.45729 59.128124 240.58229ZM68.05 240.58229Q68.05 239.05104 68.3625 238.12917Q68.675 237.19167 69.28438 236.69167Q69.90938 236.19167 70.84688 236.19167Q71.53438 236.19167 72.05 236.47292Q72.58125 236.75417 72.925 237.28542Q73.26875 237.80104 73.45625 238.55104Q73.64375 239.30104 73.64375 240.58229Q73.64375 242.09792 73.33125 243.01979Q73.03438 243.94167 72.40938 244.45729Q71.8 244.95729 70.84688 244.95729Q69.6125 244.95729 68.89375 244.06667Q68.05 243.00417 68.05 240.58229ZM69.12813 240.58229Q69.12813 242.69167 69.62813 243.39479Q70.12813 244.09792 70.84688 244.09792Q71.58125 244.09792 72.06563 243.39479Q72.56563 242.69167 72.56563 240.58229Q72.56563 238.45729 72.06563 237.76979Q71.58125 237.06667 70.83125 237.06667Q70.1125 237.06667 69.675 237.67604Q69.12813 238.45729 69.12813 240.58229ZM75.05 240.58229Q75.05 239.05104 75.3625 238.12917Q75.675 237.19167 76.28438 236.69167Q76.90938 236.19167 77.84688 236.19167Q78.53438 236.19167 79.05 236.47292Q79.58125 236.75417 79.925 237.28542Q80.26875 237.80104 80.45625 238.55104Q80.64375 239.30104 80.64375 240.58229Q80.64375 242.09792 80.33125 243.01979Q80.03438 243.94167 79.40938 244.45729Q78.8 244.95729 77.84688 244.95729Q76.6125 244.95729 75.89375 244.06667Q75.05 243.00417 75.05 240.58229ZM76.12813 240.58229Q76.12813 242.69167 76.62813 243.39479Q77.12813 244.09792 77.84688 244.09792Q78.58125 244.09792 79.06563 243.39479Q79.56563 242.69167 79.56563 240.58229Q79.56563 238.45729 79.06563 237.76979Q78.58125 237.06667 77.83125 237.06667Q77.1125 237.06667 76.675 237.67604Q76.12813 238.45729 76.12813 240.58229ZM82.05 240.58229Q82.05 239.05104 82.3625 238.12917Q82.675 237.19167 83.28438 236.69167Q83.90938 236.19167 84.84688 236.19167Q85.53438 236.19167 86.05 236.47292Q86.58125 236.75417 86.925 237.28542Q87.26875 237.80104 87.45625 238.55104Q87.64375 239.30104 87.64375 240.58229Q87.64375 242.09792 87.33125 243.01979Q87.03438 243.94167 86.40938 244.45729Q85.8 244.95729 84.84688 244.95729Q83.6125 244.95729 82.89375 244.06667Q82.05 243.00417 82.05 240.58229ZM83.12813 240.58229Q83.12813 242.69167 83.62813 243.39479Q84.12813 244.09792 84.84688 244.09792Q85.58125 244.09792 86.06563 243.39479Q86.56563 242.69167 86.56563 240.58229Q86.56563 238.45729 86.06563 237.76979Q85.58125 237.06667 84.83125 237.06667Q84.1125 237.06667 83.675 237.67604Q83.12813 238.45729 83.12813 240.58229Z" fill-rule="nonzero"/><path fill="#000000" d="M54.425 185.18333L54.425 183.12083L50.70625 183.12083L50.70625 182.15208L54.628124 176.58958L55.4875 176.58958L55.4875 182.15208L56.64375 182.15208L56.64375 183.12083L55.4875 183.12083L55.4875 185.18333L54.425 185.18333ZM54.425 182.15208L54.425 178.29271L51.7375 182.15208L54.425 182.15208ZM58.05 180.94896Q58.05 179.41771 58.3625 178.49583Q58.675 177.55833 59.284374 177.05833Q59.909374 176.55833 60.846874 176.55833Q61.534374 176.55833 62.05 176.83958Q62.58125 177.12083 62.925 177.65208Q63.26875 178.16771 63.45625 178.91771Q63.64375 179.66771 63.64375 180.94896Q63.64375 182.46458 63.33125 183.38646Q63.034374 184.30833 62.409374 184.82396Q61.8 185.32396 60.846874 185.32396Q59.6125 185.32396 58.89375 184.43333Q58.05 183.37083 58.05 180.94896ZM59.128124 180.94896Q59.128124 183.05833 59.628124 183.76146Q60.128124 184.46458 60.846874 184.46458Q61.58125 184.46458 62.065624 183.76146Q62.565624 183.05833 62.565624 180.94896Q62.565624 178.82396 62.065624 178.13646Q61.58125 177.43333 60.83125 177.43333Q60.1125 177.43333 59.675 178.04271Q59.128124 178.82396 59.128124 180.94896ZM68.05 180.94896Q68.05 179.41771 68.3625 178.49583Q68.675 177.55833 69.28438 177.05833Q69.90938 176.55833 70.84688 176.55833Q71.53438 176.55833 72.05 176.83958Q72.58125 177.12083 72.925 177.65208Q73.26875 178.16771 73.45625 178.91771Q73.64375 179.66771 73.64375 180.94896Q73.64375 182.46458 73.33125 183.38646Q73.03438 184.30833 72.40938 184.82396Q71.8 185.32396 70.84688 185.32396Q69.6125 185.32396 68.89375 184.43333Q68.05 183.37083 68.05 180.94896ZM69.12813 180.94896Q69.12813 183.05833 69.62813 183.76146Q70.12813 184.46458 70.84688 184.46458Q71.58125 184.46458 72.06563 183.76146Q72.56563 183.05833 72.56563 180.94896Q72.56563 178.82396 72.06563 178.13646Q71.58125 177.43333 70.83125 177.43333Q70.1125 177.43333 69.675 178.04271Q69.12813 178.82396 69.12813 180.94896ZM75.05 180.94896Q75.05 179.41771 75.3625 178.49583Q75.675 177.55833 76.28438 177.05833Q76.90938 176.55833 77.84688 176.55833Q78.53438 176.55833 79.05 176.83958Q79.58125 177.12083 79.925 177.65208Q80.26875 178.16771 80.45625 178.91771Q80.64375 179.66771 80.64375 180.94896Q80.64375 182.46458 80.33125 183.38646Q80.03438 184.30833 79.40938 184.82396Q78.8 185.32396 77.84688 185.32396Q76.6125 185.32396 75.89375 184.43333Q75.05 183.37083 75.05 180.94896ZM76.12813 180.94896Q76.12813 183.05833 76.62813 183.76146Q77.12813 184.46458 77.84688 184.46458Q78.58125 184.46458 79.06563 183.76146Q79.56563 183.05833 79.56563 180.94896Q79.56563 178.82396 79.06563 178.13646Q78.58125 177.43333 77.83125 177.43333Q77.1125 177.43333 76.675 178.04271Q76.12813 178.82396 76.12813 180.94896ZM82.05 180.94896Q82.05 179.41771 82.3625 178.49583Q82.675 177.55833 83.28438 177.05833Q83.90938 176.55833 84.84688 176.55833Q85.53438 176.55833 86.05 176.83958Q86.58125 177.12083 86.925 177.65208Q87.26875 178.16771 87.45625 178.91771Q87.64375 179.66771 87.64375 180.94896Q87.64375 182.46458 87.33125 183.38646Q87.03438 184.30833 86.40938 184.82396Q85.8 185.32396 84.84688 185.32396Q83.6125 185.32396 82.89375 184.43333Q82.05 183.37083 82.05 180.94896ZM83.12813 180.94896Q83.12813 183.05833 83.62813 183.76146Q84.12813 184.46458 84.84688 184.46458Q85.58125 184.46458 86.06563 183.76146Q86.56563 183.05833 86.56563 180.94896Q86.56563 178.82396 86.06563 178.13646Q85.58125 177.43333 84.83125 177.43333Q84.1125 177.43333 83.675 178.04271Q83.12813 178.82396 83.12813 180.94896Z" fill-rule="nonzero"/><path fill="#000000" d="M56.51875 119.06563L55.471874 119.14375Q55.33125 118.51875 55.08125 118.2375Q54.64375 117.78438 54.01875 117.78438Q53.51875 117.78438 53.128124 118.06563Q52.64375 118.44063 52.346874 119.14375Q52.065624 119.83125 52.05 121.1125Q52.425 120.53438 52.971874 120.25313Q53.534374 119.97188 54.14375 119.97188Q55.190624 119.97188 55.925 120.75313Q56.675 121.53438 56.675 122.75313Q56.675 123.56563 56.315624 124.26875Q55.971874 124.95625 55.3625 125.33125Q54.753124 125.69063 53.9875 125.69063Q52.659374 125.69063 51.83125 124.72188Q51.003124 123.75313 51.003124 121.53438Q51.003124 119.03438 51.925 117.90938Q52.721874 116.925 54.08125 116.925Q55.096874 116.925 55.7375 117.50313Q56.39375 118.06563 56.51875 119.06563ZM52.221874 122.76875Q52.221874 123.31563 52.440624 123.81563Q52.675 124.3 53.08125 124.56563Q53.503124 124.83125 53.971874 124.83125Q54.628124 124.83125 55.1125 124.3Q55.596874 123.75313 55.596874 122.83125Q55.596874 121.94063 55.1125 121.425Q54.64375 120.90938 53.925 120.90938Q53.20625 120.90938 52.70625 121.425Q52.221874 121.94063 52.221874 122.76875ZM58.05 121.31563Q58.05 119.78438 58.3625 118.8625Q58.675 117.925 59.284374 117.425Q59.909374 116.925 60.846874 116.925Q61.534374 116.925 62.05 117.20625Q62.58125 117.4875 62.925 118.01875Q63.26875 118.53438 63.45625 119.28438Q63.64375 120.03438 63.64375 121.31563Q63.64375 122.83125 63.33125 123.75313Q63.034374 124.675 62.409374 125.19063Q61.8 125.69063 60.846874 125.69063Q59.6125 125.69063 58.89375 124.8Q58.05 123.7375 58.05 121.31563ZM59.128124 121.31563Q59.128124 123.425 59.628124 124.12813Q60.128124 124.83125 60.846874 124.83125Q61.58125 124.83125 62.065624 124.12813Q62.565624 123.425 62.565624 121.31563Q62.565624 119.19063 62.065624 118.50313Q61.58125 117.8 60.83125 117.8Q60.1125 117.8 59.675 118.40938Q59.128124 119.19063 59.128124 121.31563ZM68.05 121.31563Q68.05 119.78438 68.3625 118.8625Q68.675 117.925 69.28438 117.425Q69.90938 116.925 70.84688 116.925Q71.53438 116.925 72.05 117.20625Q72.58125 117.4875 72.925 118.01875Q73.26875 118.53438 73.45625 119.28438Q73.64375 120.03438 73.64375 121.31563Q73.64375 122.83125 73.33125 123.75313Q73.03438 124.675 72.40938 125.19063Q71.8 125.69063 70.84688 125.69063Q69.6125 125.69063 68.89375 124.8Q68.05 123.7375 68.05 121.31563ZM69.12813 121.31563Q69.12813 123.425 69.62813 124.12813Q70.12813 124.83125 70.84688 124.83125Q71.58125 124.83125 72.06563 124.12813Q72.56563 123.425 72.56563 121.31563Q72.56563 119.19063 72.06563 118.50313Q71.58125 117.8 70.83125 117.8Q70.1125 117.8 69.675 118.40938Q69.12813 119.19063 69.12813 121.31563ZM75.05 121.31563Q75.05 119.78438 75.3625 118.8625Q75.675 117.925 76.28438 117.425Q76.90938 116.925 77.84688 116.925Q78.53438 116.925 79.05 117.20625Q79.58125 117.4875 79.925 118.01875Q80.26875 118.53438 80.45625 119.28438Q80.64375 120.03438 80.64375 121.31563Q80.64375 122.83125 80.33125 123.75313Q80.03438 124.675 79.40938 125.19063Q78.8 125.69063 77.84688 125.69063Q76.6125 125.69063 75.89375 124.8Q75.05 123.7375 75.05 121.31563ZM76.12813 121.31563Q76.12813 123.425 76.62813 124.12813Q77.12813 124.83125 77.84688 124.83125Q78.58125 124.83125 79.06563 124.12813Q79.56563 123.425 79.56563 121.31563Q79.56563 119.19063 79.06563 118.50313Q78.58125 117.8 77.83125 117.8Q77.1125 117.8 76.675 118.40938Q76.12813 119.19063 76.12813 121.31563ZM82.05 121.31563Q82.05 119.78438 82.3625 118.8625Q82.675 117.925 83.28438 117.425Q83.90938 116.925 84.84688 116.925Q85.53438 116.925 86.05 117.20625Q86.58125 117.4875 86.925 118.01875Q87.26875 118.53438 87.45625 119.28438Q87.64375 120.03438 87.64375 121.31563Q87.64375 122.83125 87.33125 123.75313Q87.03438 124.675 86.40938 125.19063Q85.8 125.69063 84.84688 125.69063Q83.6125 125.69063 82.89375 124.8Q82.05 123.7375 82.05 121.31563ZM83.12813 121.31563Q83.12813 123.425 83.62813 124.12813Q84.12813 124.83125 84.84688 124.83125Q85.58125 124.83125 86.06563 124.12813Q86.56563 123.425 86.56563 121.31563Q86.56563 119.19063 86.06563 118.50313Q85.58125 117.8 84.83125 117.8Q84.1125 117.8 83.675 118.40938Q83.12813 119.19063 83.12813 121.31563Z" fill-rule="nonzero"/><path fill="#000000" d="M52.675 61.260414Q52.01875 61.010414 51.690624 60.572914Q51.378124 60.11979 51.378124 59.510414Q51.378124 58.572914 52.05 57.93229Q52.7375 57.291664 53.846874 57.291664Q54.971874 57.291664 55.659374 57.947914Q56.346874 58.604164 56.346874 59.541664Q56.346874 60.135414 56.034374 60.572914Q55.721874 61.010414 55.08125 61.260414Q55.878124 61.510414 56.284374 62.08854Q56.690624 62.666664 56.690624 63.46354Q56.690624 64.55729 55.909374 65.30729Q55.14375 66.05729 53.8625 66.05729Q52.596874 66.05729 51.815624 65.30729Q51.034374 64.55729 51.034374 63.43229Q51.034374 62.58854 51.45625 62.02604Q51.89375 61.46354 52.675 61.260414ZM52.45625 59.46354Q52.45625 60.072914 52.846874 60.46354Q53.253124 60.854164 53.878124 60.854164Q54.4875 60.854164 54.878124 60.479164Q55.26875 60.08854 55.26875 59.52604Q55.26875 58.947914 54.8625 58.55729Q54.45625 58.15104 53.8625 58.15104Q53.253124 58.15104 52.846874 58.541664Q52.45625 58.93229 52.45625 59.46354ZM52.128124 63.43229Q52.128124 63.885414 52.33125 64.30729Q52.55 64.729164 52.971874 64.96354Q53.39375 65.197914 53.878124 65.197914Q54.628124 65.197914 55.1125 64.71354Q55.6125 64.229164 55.6125 63.479164Q55.6125 62.71354 55.1125 62.21354Q54.6125 61.71354 53.846874 61.71354Q53.096874 61.71354 52.6125 62.21354Q52.128124 62.697914 52.128124 63.43229ZM58.05 61.68229Q58.05 60.15104 58.3625 59.229164Q58.675 58.291664 59.284374 57.791664Q59.909374 57.291664 60.846874 57.291664Q61.534374 57.291664 62.05 57.572914Q62.58125 57.854164 62.925 58.385414Q63.26875 58.90104 63.45625 59.65104Q63.64375 60.40104 63.64375 61.68229Q63.64375 63.197914 63.33125 64.11979Q63.034374 65.041664 62.409374 65.55729Q61.8 66.05729 60.846874 66.05729Q59.6125 66.05729 58.89375 65.166664Q58.05 64.104164 58.05 61.68229ZM59.128124 61.68229Q59.128124 63.791664 59.628124 64.49479Q60.128124 65.197914 60.846874 65.197914Q61.58125 65.197914 62.065624 64.49479Q62.565624 63.791664 62.565624 61.68229Q62.565624 59.55729 62.065624 58.86979Q61.58125 58.166664 60.83125 58.166664Q60.1125 58.166664 59.675 58.77604Q59.128124 59.55729 59.128124 61.68229ZM68.05 61.68229Q68.05 60.15104 68.3625 59.229164Q68.675 58.291664 69.28438 57.791664Q69.90938 57.291664 70.84688 57.291664Q71.53438 57.291664 72.05 57.572914Q72.58125 57.854164 72.925 58.385414Q73.26875 58.90104 73.45625 59.65104Q73.64375 60.40104 73.64375 61.68229Q73.64375 63.197914 73.33125 64.11979Q73.03438 65.041664 72.40938 65.55729Q71.8 66.05729 70.84688 66.05729Q69.6125 66.05729 68.89375 65.166664Q68.05 64.104164 68.05 61.68229ZM69.12813 61.68229Q69.12813 63.791664 69.62813 64.49479Q70.12813 65.197914 70.84688 65.197914Q71.58125 65.197914 72.06563 64.49479Q72.56563 63.791664 72.56563 61.68229Q72.56563 59.55729 72.06563 58.86979Q71.58125 58.166664 70.83125 58.166664Q70.1125 58.166664 69.675 58.77604Q69.12813 59.55729 69.12813 61.68229ZM75.05 61.68229Q75.05 60.15104 75.3625 59.229164Q75.675 58.291664 76.28438 57.791664Q76.90938 57.291664 77.84688 57.291664Q78.53438 57.291664 79.05 57.572914Q79.58125 57.854164 79.925 58.385414Q80.26875 58.90104 80.45625 59.65104Q80.64375 60.40104 80.64375 61.68229Q80.64375 63.197914 80.33125 64.11979Q80.03438 65.041664 79.40938 65.55729Q78.8 66.05729 77.84688 66.05729Q76.6125 66.05729 75.89375 65.166664Q75.05 64.104164 75.05 61.68229ZM76.12813 61.68229Q76.12813 63.791664 76.62813 64.49479Q77.12813 65.197914 77.84688 65.197914Q78.58125 65.197914 79.06563 64.49479Q79.56563 63.791664 79.56563 61.68229Q79.56563 59.55729 79.06563 58.86979Q78.58125 58.166664 77.83125 58.166664Q77.1125 58.166664 76.675 58.77604Q76.12813 59.55729 76.12813 61.68229ZM82.05 61.68229Q82.05 60.15104 82.3625 59.229164Q82.675 58.291664 83.28438 57.791664Q83.90938 57.291664 84.84688 57.291664Q85.53438 57.291664 86.05 57.572914Q86.58125 57.854164 86.925 58.385414Q87.26875 58.90104 87.45625 59.65104Q87.64375 60.40104 87.64375 61.68229Q87.64375 63.197914 87.33125 64.11979Q87.03438 65.041664 86.40938 65.55729Q85.8 66.05729 84.84688 66.05729Q83.6125 66.05729 82.89375 65.166664Q82.05 64.104164 82.05 61.68229ZM83.12813 61.68229Q83.12813 63.791664 83.62813 64.49479Q84.12813 65.197914 84.84688 65.197914Q85.58125 65.197914 86.06563 64.49479Q86.56563 63.791664 86.56563 61.68229Q86.56563 59.55729 86.06563 58.86979Q85.58125 58.166664 84.83125 58.166664Q84.1125 58.166664 83.675 58.77604Q83.12813 59.55729 83.12813 61.68229Z" fill-rule="nonzero"/><path fill="#000000" d="M147.23131 319.84064L147.10631 318.85626Q147.45006 318.95 147.71568 318.95Q148.05943 318.95 148.26256 318.825Q148.48131 318.71564 148.62193 318.5125Q148.71568 318.34064 148.95006 317.71564Q148.96568 317.6375 149.04381 317.46564L146.66881 311.23126L147.80943 311.23126L149.10631 314.825Q149.35631 315.5125 149.55943 316.27814Q149.74693 315.54376 149.99693 314.85626L151.32506 311.23126L152.37193 311.23126L150.01256 317.5594Q149.62193 318.575 149.41881 318.96564Q149.13756 319.4969 148.76256 319.73126Q148.40318 319.98126 147.90318 319.98126Q147.60631 319.98126 147.23131 319.84064ZM156.35631 317.45L156.35631 316.52814Q155.62193 317.59064 154.37193 317.59064Q153.82506 317.59064 153.34068 317.3875Q152.87193 317.16876 152.63756 316.85626Q152.40318 316.52814 152.30943 316.0594Q152.24693 315.7625 152.24693 315.075L152.24693 311.23126L153.30943 311.23126L153.30943 314.6844Q153.30943 315.4969 153.37193 315.79376Q153.46568 316.2 153.77818 316.45Q154.10631 316.6844 154.59068 316.6844Q155.05943 316.6844 155.46568 316.45Q155.88756 316.2 156.05943 315.77814Q156.24693 315.35626 156.24693 314.5594L156.24693 311.23126L157.29381 311.23126L157.29381 317.45L156.35631 317.45ZM159.27818 319.84064L159.27818 311.23126L160.23131 311.23126L160.23131 312.02814Q160.57506 311.5594 160.99693 311.325Q161.43443 311.09064 162.04381 311.09064Q162.84068 311.09064 163.45006 311.4969Q164.05943 311.90314 164.35631 312.65314Q164.66881 313.40314 164.66881 314.29376Q164.66881 315.2469 164.32506 316.0125Q163.99693 316.77814 163.34068 317.1844Q162.68443 317.59064 161.96568 317.59064Q161.43443 317.59064 161.01256 317.3719Q160.59068 317.1375 160.32506 316.8094L160.32506 319.84064L159.27818 319.84064ZM160.23131 314.3719Q160.23131 315.575 160.71568 316.15314Q161.20006 316.71564 161.88756 316.71564Q162.59068 316.71564 163.09068 316.1219Q163.59068 315.52814 163.59068 314.27814Q163.59068 313.09064 163.10631 312.5125Q162.62193 311.91876 161.93443 311.91876Q161.26256 311.91876 160.74693 312.54376Q160.23131 313.16876 160.23131 314.3719Z" fill-rule="nonzero"/><path fill="#000000" d="M241.27191 310.09064L241.27191 308.85626L242.33441 308.85626L242.33441 310.09064L241.27191 310.09064ZM239.94379 319.8719L240.13129 318.96564Q240.45941 319.04376 240.63129 319.04376Q240.95941 319.04376 241.11566 318.825Q241.27191 318.6219 241.27191 317.7625L241.27191 311.23126L242.33441 311.23126L242.33441 317.79376Q242.33441 318.9344 242.03754 319.3875Q241.64691 319.98126 240.77191 319.98126Q240.33441 319.98126 239.94379 319.8719ZM243.89691 314.34064Q243.89691 312.60626 244.85004 311.77814Q245.64691 311.09064 246.80316 311.09064Q248.08441 311.09064 248.89691 311.9344Q249.72504 312.7625 249.72504 314.2469Q249.72504 315.45 249.36566 316.1375Q249.00629 316.825 248.30316 317.21564Q247.61566 317.59064 246.80316 317.59064Q245.50629 317.59064 244.69379 316.7625Q243.89691 315.91876 243.89691 314.34064ZM244.97504 314.34064Q244.97504 315.52814 245.49066 316.1219Q246.02191 316.71564 246.80316 316.71564Q247.60004 316.71564 248.11566 316.1219Q248.63129 315.52814 248.63129 314.3094Q248.63129 313.15314 248.10004 312.5594Q247.58441 311.96564 246.80316 311.96564Q246.02191 311.96564 245.49066 312.5594Q244.97504 313.1375 244.97504 314.34064ZM251.28754 310.075L251.28754 308.85626L252.35004 308.85626L252.35004 310.075L251.28754 310.075ZM251.28754 317.45L251.28754 311.23126L252.35004 311.23126L252.35004 317.45L251.28754 317.45Z" fill-rule="nonzero"/><path fill="#000000" d="M328.73438 317.45L328.73438 316.59064L332.70312 312.04376Q332.01562 312.075 331.5 312.075L328.96875 312.075L328.96875 311.23126L334.0625 311.23126L334.0625 311.91876L330.6875 315.8719L330.03125 316.59064Q330.75 316.54376 331.35938 316.54376L334.25 316.54376L334.25 317.45L328.73438 317.45ZM333.90625 314.34064Q333.90625 312.60626 334.85938 311.77814Q335.65625 311.09064 336.8125 311.09064Q338.09375 311.09064 338.90625 311.9344Q339.73438 312.7625 339.73438 314.2469Q339.73438 315.45 339.375 316.1375Q339.01562 316.825 338.3125 317.21564Q337.625 317.59064 336.8125 317.59064Q335.51562 317.59064 334.70312 316.7625Q333.90625 315.91876 333.90625 314.34064ZM334.98438 314.34064Q334.98438 315.52814 335.5 316.1219Q336.03125 316.71564 336.8125 316.71564Q337.60938 316.71564 338.125 316.1219Q338.64062 315.52814 338.64062 314.3094Q338.64062 313.15314 338.10938 312.5594Q337.59375 311.96564 336.8125 311.96564Q336.03125 311.96564 335.5 312.5594Q334.98438 313.1375 334.98438 314.34064ZM345.32812 317.45L345.32812 316.66876Q344.73438 317.59064 343.59375 317.59064Q342.84375 317.59064 342.21875 317.1844Q341.59375 316.7625 341.25 316.02814Q340.90625 315.29376 340.90625 314.34064Q340.90625 313.41876 341.21875 312.65314Q341.53125 311.8875 342.15625 311.4969Q342.78125 311.09064 343.54688 311.09064Q344.10938 311.09064 344.54688 311.325Q344.98438 311.5594 345.26562 311.9344L345.26562 308.85626L346.3125 308.85626L346.3125 317.45L345.32812 317.45ZM342.0 314.34064Q342.0 315.54376 342.5 316.1375Q343.0 316.71564 343.6875 316.71564Q344.375 316.71564 344.85938 316.15314Q345.34375 315.59064 345.34375 314.4344Q345.34375 313.15314 344.84375 312.5594Q344.35938 311.96564 343.64062 311.96564Q342.9375 311.96564 342.46875 312.54376Q342.0 313.10626 342.0 314.34064Z" fill-rule="nonzero"/><path fill="#000000" d="M412.3062 317.45L412.3062 311.23126L413.2437 311.23126L413.2437 312.10626Q413.5406 311.6375 414.02496 311.3719Q414.50934 311.09064 415.13434 311.09064Q415.82184 311.09064 416.25934 311.3719Q416.71246 311.65314 416.88434 312.16876Q417.63434 311.09064 418.8062 311.09064Q419.7437 311.09064 420.2281 311.60626Q420.7281 312.10626 420.7281 313.1844L420.7281 317.45L419.6812 317.45L419.6812 313.52814Q419.6812 312.90314 419.57184 312.6219Q419.4781 312.34064 419.21246 312.16876Q418.94684 311.9969 418.57184 311.9969Q417.9156 311.9969 417.4781 312.4344Q417.0562 312.8719 417.0562 313.84064L417.0562 317.45L415.9937 317.45L415.9937 313.40314Q415.9937 312.7 415.7281 312.35626Q415.4781 311.9969 414.89996 311.9969Q414.44684 311.9969 414.07184 312.23126Q413.69684 312.46564 413.52496 312.91876Q413.3531 313.3719 413.3531 314.21564L413.3531 317.45L412.3062 317.45ZM423.25934 319.84064L423.13434 318.85626Q423.4781 318.95 423.7437 318.95Q424.08746 318.95 424.2906 318.825Q424.50934 318.71564 424.64996 318.5125Q424.7437 318.34064 424.9781 317.71564Q424.9937 317.6375 425.07184 317.46564L422.69684 311.23126L423.83746 311.23126L425.13434 314.825Q425.38434 315.5125 425.58746 316.27814Q425.77496 315.54376 426.02496 314.85626L427.3531 311.23126L428.39996 311.23126L426.0406 317.5594Q425.64996 318.575 425.44684 318.96564Q425.1656 319.4969 424.7906 319.73126Q424.4312 319.98126 423.9312 319.98126Q423.63434 319.98126 423.25934 319.84064ZM427.7437 317.45L427.7437 316.59064L431.71246 312.04376Q431.02496 312.075 430.50934 312.075L427.9781 312.075L427.9781 311.23126L433.07184 311.23126L433.07184 311.91876L429.69684 315.8719L429.0406 316.59064Q429.75934 316.54376 430.3687 316.54376L433.25934 316.54376L433.25934 317.45L427.7437 317.45ZM432.9156 314.34064Q432.9156 312.60626 433.8687 311.77814Q434.6656 311.09064 435.82184 311.09064Q437.1031 311.09064 437.9156 311.9344Q438.7437 312.7625 438.7437 314.2469Q438.7437 315.45 438.38434 316.1375Q438.02496 316.825 437.32184 317.21564Q436.63434 317.59064 435.82184 317.59064Q434.52496 317.59064 433.71246 316.7625Q432.9156 315.91876 432.9156 314.34064ZM433.9937 314.34064Q433.9937 315.52814 434.50934 316.1219Q435.0406 316.71564 435.82184 316.71564Q436.6187 316.71564 437.13434 316.1219Q437.64996 315.52814 437.64996 314.3094Q437.64996 313.15314 437.1187 312.5594Q436.6031 311.96564 435.82184 311.96564Q435.0406 311.96564 434.50934 312.5594Q433.9937 313.1375 433.9937 314.34064ZM444.33746 317.45L444.33746 316.66876Q443.7437 317.59064 442.6031 317.59064Q441.8531 317.59064 441.2281 317.1844Q440.6031 316.7625 440.25934 316.02814Q439.9156 315.29376 439.9156 314.34064Q439.9156 313.41876 440.2281 312.65314Q440.5406 311.8875 441.1656 311.4969Q441.7906 311.09064 442.5562 311.09064Q443.1187 311.09064 443.5562 311.325Q443.9937 311.5594 444.27496 311.9344L444.27496 308.85626L445.32184 308.85626L445.32184 317.45L444.33746 317.45ZM441.00934 314.34064Q441.00934 315.54376 441.50934 316.1375Q442.00934 316.71564 442.69684 316.71564Q443.38434 316.71564 443.8687 316.15314Q444.3531 315.59064 444.3531 314.4344Q444.3531 313.15314 443.8531 312.5594Q443.3687 311.96564 442.64996 311.96564Q441.94684 311.96564 441.4781 312.54376Q441.00934 313.10626 441.00934 314.34064Z" fill-rule="nonzero"/><path fill="#000000" d="M517.37805 316.6844Q516.7843 317.1844 516.2374 317.3875Q515.7062 317.59064 515.0812 317.59064Q514.0499 317.59064 513.50305 317.09064Q512.9562 316.59064 512.9562 315.8094Q512.9562 315.35626 513.1593 314.98126Q513.3624 314.59064 513.7062 314.3719Q514.0499 314.1375 514.4718 314.02814Q514.7687 313.9344 515.4093 313.85626Q516.6749 313.71564 517.2843 313.4969Q517.2843 313.27814 517.2843 313.23126Q517.2843 312.575 516.9874 312.3094Q516.5812 311.96564 515.7843 311.96564Q515.0499 311.96564 514.69055 312.23126Q514.3312 312.48126 514.1593 313.1375L513.12805 312.9969Q513.2687 312.34064 513.5968 311.9344Q513.9249 311.52814 514.5343 311.3094Q515.1437 311.09064 515.94055 311.09064Q516.7374 311.09064 517.2374 311.27814Q517.7374 311.46564 517.9718 311.7469Q518.2062 312.02814 518.2999 312.46564Q518.3468 312.73126 518.3468 313.4344L518.3468 314.84064Q518.3468 316.3094 518.4093 316.7Q518.4874 317.09064 518.69055 317.45L517.5812 317.45Q517.4249 317.1219 517.37805 316.6844ZM517.2843 314.325Q516.7062 314.5594 515.56555 314.73126Q514.9093 314.825 514.6437 314.95Q514.37805 315.0594 514.2218 315.27814Q514.0812 315.4969 514.0812 315.77814Q514.0812 316.2 514.3937 316.48126Q514.7218 316.7625 515.3312 316.7625Q515.94055 316.7625 516.4093 316.4969Q516.8937 316.23126 517.1124 315.7625Q517.2843 315.40314 517.2843 314.71564L517.2843 314.325ZM520.2999 310.09064L520.2999 308.85626L521.3624 308.85626L521.3624 310.09064L520.2999 310.09064ZM518.9718 319.8719L519.1593 318.96564Q519.4874 319.04376 519.6593 319.04376Q519.9874 319.04376 520.1437 318.825Q520.2999 318.6219 520.2999 317.7625L520.2999 311.23126L521.3624 311.23126L521.3624 317.79376Q521.3624 318.9344 521.06555 319.3875Q520.6749 319.98126 519.7999 319.98126Q519.3624 319.98126 518.9718 319.8719ZM525.0343 317.45L522.6749 311.23126L523.7843 311.23126L525.12805 314.95Q525.3312 315.5594 525.5187 316.2Q525.6593 315.71564 525.9093 315.02814L527.2999 311.23126L528.37805 311.23126L526.0187 317.45L525.0343 317.45Z" fill-rule="nonzero"/><path fill="#757575" d="M23.7375 37.55L23.7375 24.925L19.01875 24.925L19.01875 23.2375L30.3625 23.2375L30.3625 24.925L25.628124 24.925L25.628124 37.55L23.7375 37.55ZM31.784374 41.55L31.596874 39.89375Q32.175 40.05 32.596874 40.05Q33.190624 40.05 33.534374 39.846874Q33.89375 39.659374 34.1125 39.315624Q34.284374 39.05 34.659374 38.003124Q34.70625 37.846874 34.815624 37.565624L30.878124 27.175L32.76875 27.175L34.925 33.190624Q35.346874 34.33125 35.675 35.58125Q35.9875 34.378124 36.39375 33.221874L38.6125 27.175L40.378124 27.175L36.425 37.721874Q35.8 39.440624 35.440624 40.08125Q34.971874 40.95625 34.3625 41.346874Q33.76875 41.753124 32.925 41.753124Q32.409374 41.753124 31.784374 41.55ZM41.8625 41.51875L41.8625 27.175L43.471874 27.175L43.471874 28.51875Q44.034374 27.7375 44.7375 27.346874Q45.45625 26.940624 46.471874 26.940624Q47.8 26.940624 48.815624 27.628124Q49.83125 28.315624 50.346874 29.565624Q50.878124 30.8 50.878124 32.284374Q50.878124 33.878124 50.3 35.159374Q49.7375 36.425 48.64375 37.1125Q47.55 37.784374 46.346874 37.784374Q45.471874 37.784374 44.76875 37.409374Q44.08125 37.034374 43.628124 36.471874L43.628124 41.51875L41.8625 41.51875ZM43.45625 32.425Q43.45625 34.425 44.26875 35.378124Q45.08125 36.33125 46.2375 36.33125Q47.409374 36.33125 48.2375 35.346874Q49.08125 34.3625 49.08125 32.26875Q49.08125 30.3 48.253124 29.315624Q47.440624 28.315624 46.315624 28.315624Q45.190624 28.315624 44.315624 29.378124Q43.45625 30.425 43.45625 32.425ZM59.971874 34.20625L61.784374 34.440624Q61.3625 36.01875 60.190624 36.909374Q59.034374 37.784374 57.221874 37.784374Q54.95625 37.784374 53.6125 36.39375Q52.284374 34.9875 52.284374 32.45625Q52.284374 29.83125 53.628124 28.39375Q54.971874 26.940624 57.128124 26.940624Q59.20625 26.940624 60.51875 28.3625Q61.846874 29.76875 61.846874 32.346874Q61.846874 32.503124 61.83125 32.815624L54.096874 32.815624Q54.190624 34.51875 55.065624 35.425Q55.940624 36.33125 57.2375 36.33125Q58.20625 36.33125 58.878124 35.83125Q59.565624 35.315624 59.971874 34.20625ZM54.190624 31.3625L59.9875 31.3625Q59.878124 30.065624 59.33125 29.409374Q58.4875 28.39375 57.14375 28.39375Q55.940624 28.39375 55.1125 29.20625Q54.284374 30.003124 54.190624 31.3625ZM63.159374 34.45625L64.90938 34.175Q65.05 35.221874 65.72188 35.784374Q66.39375 36.33125 67.59688 36.33125Q68.8 36.33125 69.37813 35.846874Q69.97188 35.346874 69.97188 34.690624Q69.97188 34.096874 69.45625 33.753124Q69.09688 33.51875 67.65938 33.159374Q65.72188 32.659374 64.97188 32.315624Q64.2375 31.95625 63.846874 31.33125Q63.45625 30.690624 63.45625 29.925Q63.45625 29.2375 63.76875 28.64375Q64.09688 28.05 64.64375 27.659374Q65.05 27.3625 65.75313 27.159374Q66.47188 26.940624 67.28438 26.940624Q68.50313 26.940624 69.425 27.3Q70.34688 27.64375 70.78438 28.253124Q71.22188 28.846874 71.39375 29.846874L69.675 30.08125Q69.55 29.284374 68.9875 28.846874Q68.425 28.39375 67.40938 28.39375Q66.19063 28.39375 65.675 28.8Q65.15938 29.190624 65.15938 29.721874Q65.15938 30.065624 65.37813 30.346874Q65.58125 30.628124 66.05 30.815624Q66.31563 30.909374 67.59688 31.253124Q69.47188 31.753124 70.20625 32.08125Q70.94063 32.39375 71.3625 33.003124Q71.78438 33.596874 71.78438 34.503124Q71.78438 35.378124 71.26875 36.159374Q70.75313 36.940624 69.78438 37.3625Q68.81563 37.784374 67.59688 37.784374Q65.58125 37.784374 64.51875 36.940624Q63.45625 36.096874 63.159374 34.45625ZM79.22188 32.3625Q79.22188 29.4875 80.81563 28.096874Q82.15938 26.940624 84.08125 26.940624Q86.22188 26.940624 87.56563 28.346874Q88.925 29.753124 88.925 32.221874Q88.925 34.221874 88.33125 35.378124Q87.7375 36.51875 86.58125 37.159374Q85.44063 37.784374 84.08125 37.784374Q81.89375 37.784374 80.55 36.39375Q79.22188 34.9875 79.22188 32.3625ZM81.01875 32.3625Q81.01875 34.3625 81.87813 35.346874Q82.75313 36.33125 84.08125 36.33125Q85.39375 36.33125 86.25313 35.346874Q87.12813 34.346874 87.12813 32.3Q87.12813 30.378124 86.25313 29.39375Q85.37813 28.39375 84.08125 28.39375Q82.75313 28.39375 81.87813 29.39375Q81.01875 30.378124 81.01875 32.3625ZM90.8625 37.55L90.8625 27.175L92.45625 27.175L92.45625 28.659374Q93.59688 26.940624 95.75313 26.940624Q96.69063 26.940624 97.47188 27.284374Q98.26875 27.6125 98.65938 28.159374Q99.05 28.70625 99.20625 29.45625Q99.3 29.95625 99.3 31.175L99.3 37.55L97.53438 37.55L97.53438 31.2375Q97.53438 30.159374 97.33125 29.628124Q97.12813 29.096874 96.59688 28.784374Q96.08125 28.471874 95.37813 28.471874Q94.25313 28.471874 93.44063 29.190624Q92.62813 29.89375 92.62813 31.878124L92.62813 37.55L90.8625 37.55ZM100.83125 37.55L100.83125 23.2375L102.58125 23.2375L102.58125 37.55L100.83125 37.55ZM104.78438 41.55L104.59688 39.89375Q105.175 40.05 105.59688 40.05Q106.19063 40.05 106.53438 39.846874Q106.89375 39.659374 107.1125 39.315624Q107.28438 39.05 107.65938 38.003124Q107.70625 37.846874 107.81563 37.565624L103.87813 27.175L105.76875 27.175L107.925 33.190624Q108.34688 34.33125 108.675 35.58125Q108.9875 34.378124 109.39375 33.221874L111.6125 27.175L113.37813 27.175L109.425 37.721874Q108.8 39.440624 108.44063 40.08125Q107.97188 40.95625 107.3625 41.346874Q106.76875 41.753124 105.925 41.753124Q105.40938 41.753124 104.78438 41.55ZM123.75313 37.55L119.8 27.175L121.65938 27.175L123.89375 33.39375Q124.25313 34.39375 124.55 35.471874Q124.78438 34.659374 125.20625 33.503124L127.50313 27.175L129.31563 27.175L125.39375 37.55L123.75313 37.55ZM136.64375 36.26875Q135.65938 37.096874 134.75313 37.440624Q133.84688 37.784374 132.81563 37.784374Q131.1125 37.784374 130.19063 36.95625Q129.26875 36.1125 129.26875 34.815624Q129.26875 34.05 129.6125 33.425Q129.97188 32.8 130.53438 32.425Q131.09688 32.034374 131.8 31.83125Q132.31563 31.70625 133.3625 31.565624Q135.4875 31.315624 136.4875 30.971874Q136.50313 30.6125 136.50313 30.503124Q136.50313 29.440624 136.00313 28.9875Q135.33125 28.39375 134.00313 28.39375Q132.75313 28.39375 132.15938 28.83125Q131.58125 29.26875 131.3 30.378124L129.58125 30.14375Q129.81563 29.034374 130.34688 28.3625Q130.87813 27.675 131.89375 27.315624Q132.90938 26.940624 134.25313 26.940624Q135.58125 26.940624 136.40938 27.253124Q137.2375 27.565624 137.62813 28.05Q138.01875 28.51875 138.175 29.2375Q138.26875 29.690624 138.26875 30.8625L138.26875 33.20625Q138.26875 35.659374 138.37813 36.315624Q138.4875 36.95625 138.83125 37.55L136.9875 37.55Q136.72188 37.003124 136.64375 36.26875ZM136.4875 32.346874Q135.53438 32.7375 133.6125 33.003124Q132.53438 33.159374 132.08125 33.3625Q131.64375 33.55 131.39375 33.925Q131.14375 34.3 131.14375 34.76875Q131.14375 35.471874 131.675 35.940624Q132.20625 36.409374 133.2375 36.409374Q134.25313 36.409374 135.03438 35.971874Q135.83125 35.51875 136.20625 34.753124Q136.4875 34.14375 136.4875 32.9875L136.4875 32.346874ZM140.83125 37.55L140.83125 23.2375L142.58125 23.2375L142.58125 37.55L140.83125 37.55ZM144.87813 25.253124L144.87813 23.2375L146.64375 23.2375L146.64375 25.253124L144.87813 25.253124ZM144.87813 37.55L144.87813 27.175L146.64375 27.175L146.64375 37.55L144.87813 37.55ZM155.59688 37.55L155.59688 36.2375Q154.6125 37.784374 152.69063 37.784374Q151.45625 37.784374 150.40938 37.096874Q149.37813 36.409374 148.8 35.190624Q148.2375 33.971874 148.2375 32.378124Q148.2375 30.815624 148.75313 29.55Q149.26875 28.284374 150.3 27.6125Q151.34688 26.940624 152.6125 26.940624Q153.55 26.940624 154.28438 27.346874Q155.01875 27.7375 155.4875 28.3625L155.4875 23.2375L157.22188 23.2375L157.22188 37.55L155.59688 37.55ZM150.03438 32.378124Q150.03438 34.3625 150.87813 35.346874Q151.72188 36.33125 152.8625 36.33125Q154.01875 36.33125 154.81563 35.39375Q155.62813 34.45625 155.62813 32.51875Q155.62813 30.39375 154.8 29.39375Q153.9875 28.39375 152.78438 28.39375Q151.6125 28.39375 150.81563 29.3625Q150.03438 30.315624 150.03438 32.378124ZM166.64375 36.26875Q165.65938 37.096874 164.75313 37.440624Q163.84688 37.784374 162.81563 37.784374Q161.1125 37.784374 160.19063 36.95625Q159.26875 36.1125 159.26875 34.815624Q159.26875 34.05 159.6125 33.425Q159.97188 32.8 160.53438 32.425Q161.09688 32.034374 161.8 31.83125Q162.31563 31.70625 163.3625 31.565624Q165.4875 31.315624 166.4875 30.971874Q166.50313 30.6125 166.50313 30.503124Q166.50313 29.440624 166.00313 28.9875Q165.33125 28.39375 164.00313 28.39375Q162.75313 28.39375 162.15938 28.83125Q161.58125 29.26875 161.3 30.378124L159.58125 30.14375Q159.81563 29.034374 160.34688 28.3625Q160.87813 27.675 161.89375 27.315624Q162.90938 26.940624 164.25313 26.940624Q165.58125 26.940624 166.40938 27.253124Q167.2375 27.565624 167.62813 28.05Q168.01875 28.51875 168.175 29.2375Q168.26875 29.690624 168.26875 30.8625L168.26875 33.20625Q168.26875 35.659374 168.37813 36.315624Q168.4875 36.95625 168.83125 37.55L166.9875 37.55Q166.72188 37.003124 166.64375 36.26875ZM166.4875 32.346874Q165.53438 32.7375 163.6125 33.003124Q162.53438 33.159374 162.08125 33.3625Q161.64375 33.55 161.39375 33.925Q161.14375 34.3 161.14375 34.76875Q161.14375 35.471874 161.675 35.940624Q162.20625 36.409374 163.2375 36.409374Q164.25313 36.409374 165.03438 35.971874Q165.83125 35.51875 166.20625 34.753124Q166.4875 34.14375 166.4875 32.9875L166.4875 32.346874ZM174.70625 35.971874L174.95625 37.534374Q174.22188 37.690624 173.62813 37.690624Q172.675 37.690624 172.14375 37.39375Q171.62813 37.08125 171.40938 36.596874Q171.19063 36.096874 171.19063 34.51875L171.19063 28.55L169.90938 28.55L169.90938 27.175L171.19063 27.175L171.19063 24.6125L172.94063 23.55L172.94063 27.175L174.70625 27.175L174.70625 28.55L172.94063 28.55L172.94063 34.6125Q172.94063 35.3625 173.03438 35.58125Q173.12813 35.784374 173.33125 35.925Q173.55 36.05 173.94063 36.05Q174.22188 36.05 174.70625 35.971874ZM176.87813 25.253124L176.87813 23.2375L178.64375 23.2375L178.64375 25.253124L176.87813 25.253124ZM176.87813 37.55L176.87813 27.175L178.64375 27.175L178.64375 37.55L176.87813 37.55ZM180.22188 32.3625Q180.22188 29.4875 181.81563 28.096874Q183.15938 26.940624 185.08125 26.940624Q187.22188 26.940624 188.56563 28.346874Q189.925 29.753124 189.925 32.221874Q189.925 34.221874 189.33125 35.378124Q188.7375 36.51875 187.58125 37.159374Q186.44063 37.784374 185.08125 37.784374Q182.89375 37.784374 181.55 36.39375Q180.22188 34.9875 180.22188 32.3625ZM182.01875 32.3625Q182.01875 34.3625 182.87813 35.346874Q183.75313 36.33125 185.08125 36.33125Q186.39375 36.33125 187.25313 35.346874Q188.12813 34.346874 188.12813 32.3Q188.12813 30.378124 187.25313 29.39375Q186.37813 28.39375 185.08125 28.39375Q183.75313 28.39375 182.87813 29.39375Q182.01875 30.378124 182.01875 32.3625ZM191.8625 37.55L191.8625 27.175L193.45625 27.175L193.45625 28.659374Q194.59688 26.940624 196.75313 26.940624Q197.69063 26.940624 198.47188 27.284374Q199.26875 27.6125 199.65938 28.159374Q200.05 28.70625 200.20625 29.45625Q200.3 29.95625 200.3 31.175L200.3 37.55L198.53438 37.55L198.53438 31.2375Q198.53438 30.159374 198.33125 29.628124Q198.12813 29.096874 197.59688 28.784374Q197.08125 28.471874 196.37813 28.471874Q195.25313 28.471874 194.44063 29.190624Q193.62813 29.89375 193.62813 31.878124L193.62813 37.55L191.8625 37.55Z" fill-rule="nonzero"/></svg>