<svg version="1.1" viewBox="0.0 0.0 600.0 371.0" fill="none" stroke="none" stroke-linecap="square" stroke-miterlimit="10" width="600" height="371" xmlns:xlink="http://www.w3.org/1999/xlink" xmlns="http://www.w3.org/2000/svg"><path fill="#ffffff" d="M0 0L600.0 0L600.0 371.0L0 371.0L0 0Z" fill-rule="nonzero"/><path stroke="#333333" stroke-width="1.0" stroke-linecap="butt" d="M87.5 300.5L581.5 300.5" fill-rule="nonzero"/><path stroke="#cccccc" stroke-width="1.0" stroke-linecap="butt" d="M87.5 240.5L581.5 240.5" fill-rule="nonzero"/><path stroke="#cccccc" stroke-width="1.0" stroke-linecap="butt" d="M87.5 181.5L581.5 181.5" fill-rule="nonzero"/><path stroke="#cccccc" stroke-width="1.0" stroke-linecap="butt" d="M87.5 121.5L581.5 121.5" fill-rule="nonzero"/><path stroke="#cccccc" stroke-width="1.0" stroke-linecap="butt" d="M87.5 61.5L581.5 61.5" fill-rule="nonzero"/><clipPath id="id_0"><path d="M87.55 61.916668L581.45 61.916668L581.45 300.45L87.55 300.45L87.55 61.916668Z" clip-rule="nonzero"/></clipPath><path stroke="#000000" stroke-width="2.0" stroke-linecap="butt" stroke-opacity="0.0" clip-path="url(#id_0)" d="M180.0 300.0L120.0 300.0L120.0 284.0C120.0 282.89542 120.89543 282.0 122.0 282.0L178.0 282.0C179.10457 282.0 180.0 282.89542 180.0 284.0Z" fill-rule="nonzero"/><path fill="#4285f4" clip-path="url(#id_0)" d="M180.0 300.0L120.0 300.0L120.0 284.0C120.0 282.89542 120.89543 282.0 122.0 282.0L178.0 282.0C179.10457 282.0 180.0 282.89542 180.0 284.0Z" fill-rule="nonzero"/><path stroke="#000000" stroke-width="2.0" stroke-linecap="butt" stroke-opacity="0.0" clip-path="url(#id_0)" d="M272.0 300.0L212.0 300.0L212.0 275.0C212.0 273.89542 212.89543 273.0 214.0 273.0L270.0 273.0C271.10458 273.0 272.0 273.89542 272.0 275.0Z" fill-rule="nonzero"/><path fill="#4285f4" clip-path="url(#id_0)" d="M272.0 300.0L212.0 300.0L212.0 275.0C212.0 273.89542 212.89543 273.0 214.0 273.0L270.0 273.0C271.10458 273.0 272.0 273.89542 272.0 275.0Z" fill-rule="nonzero"/><path stroke="#000000" stroke-width="2.0" stroke-linecap="butt" stroke-opacity="0.0" clip-path="url(#id_0)" d="M365.0 300.0L305.0 300.0L305.0 247.0C305.0 245.89543 305.89542 245.0 307.0 245.0L363.0 245.0C364.10458 245.0 365.0 245.89543 365.0 247.0Z" fill-rule="nonzero"/><path fill="#4285f4" clip-path="url(#id_0)" d="M365.0 300.0L305.0 300.0L305.0 247.0C305.0 245.89543 305.89542 245.0 307.0 245.0L363.0 245.0C364.10458 245.0 365.0 245.89543 365.0 247.0Z" fill-rule="nonzero"/><path stroke="#000000" stroke-width="2.0" stroke-linecap="butt" stroke-opacity="0.0" clip-path="url(#id_0)" d="M457.0 300.0L397.0 300.0L397.0 187.0C397.0 185.89543 397.89542 185.0 399.0 185.0L455.0 185.0C456.10458 185.0 457.0 185.89543 457.0 187.0Z" fill-rule="nonzero"/><path fill="#4285f4" clip-path="url(#id_0)" d="M457.0 300.0L397.0 300.0L397.0 187.0C397.0 185.89543 397.89542 185.0 399.0 185.0L455.0 185.0C456.10458 185.0 457.0 185.89543 457.0 187.0Z" fill-rule="nonzero"/><path stroke="#000000" stroke-width="2.0" stroke-linecap="butt" stroke-opacity="0.0" clip-path="url(#id_0)" d="M549.0 300.0L489.0 300.0L489.0 65.0C489.0 63.89543 489.89542 63.0 491.0 63.0L547.0 63.0C548.10455 63.0 549.0 63.89543 549.0 65.0Z" fill-rule="nonzero"/><path fill="#4285f4" clip-path="url(#id_0)" d="M549.0 300.0L489.0 300.0L489.0 65.0C489.0 63.89543 489.89542 63.0 491.0 63.0L547.0 63.0C548.10455 63.0 549.0 63.89543 549.0 65.0Z" fill-rule="nonzero"/><path stroke="#ffffff" stroke-width="3.0" stroke-linejoin="round" stroke-linecap="round" d="M143.76562 267.32147L142.6875 267.32147L142.6875 260.10272L140.5 260.8996L140.5 259.91522L143.60938 258.74335L143.76562 258.74335L143.76562 267.32147ZM147.70312 263.04022L148.14062 258.79022L152.51562 258.79022L152.51562 259.79022L149.0625 259.79022L148.79688 262.11835Q149.4375 261.74335 150.23438 261.74335Q151.39062 261.74335 152.07812 262.5246Q152.76562 263.29022 152.76562 264.60272Q152.76562 265.91522 152.04688 266.68085Q151.34375 267.44647 150.0625 267.44647Q148.9375 267.44647 148.21875 266.82147Q147.5 266.18085 147.40625 265.07147L148.42188 265.07147Q148.53125 265.80585 148.95312 266.18085Q149.375 266.55585 150.0625 266.55585Q150.8125 266.55585 151.25 266.04022Q151.6875 265.5246 151.6875 264.61835Q151.6875 263.75897 151.21875 263.24335Q150.75 262.72772 149.96875 262.72772Q149.26562 262.72772 148.85938 263.0246L148.57812 263.25897L147.70312 263.04022ZM159.79688 267.32147L154.20312 267.32147L154.20312 266.54022L157.15625 263.25897Q157.8125 262.50897 158.0625 262.05585Q158.3125 261.5871 158.3125 261.0871Q158.3125 260.41522 157.90625 259.99335Q157.51562 259.55585 156.82812 259.55585Q156.03125 259.55585 155.57812 260.0246Q155.125 260.47772 155.125 261.30585L154.04688 261.30585Q154.04688 260.11835 154.79688 259.3996Q155.5625 258.66522 156.82812 258.66522Q158.03125 258.66522 158.71875 259.29022Q159.40625 259.91522 159.40625 260.9621Q159.40625 262.2121 157.79688 263.9621L155.51562 266.43085L159.79688 266.43085L159.79688 267.32147Z" fill-rule="nonzero"/><path fill="#4285f4" d="M143.76562 267.32147L142.6875 267.32147L142.6875 260.10272L140.5 260.8996L140.5 259.91522L143.60938 258.74335L143.76562 258.74335L143.76562 267.32147ZM147.70312 263.04022L148.14062 258.79022L152.51562 258.79022L152.51562 259.79022L149.0625 259.79022L148.79688 262.11835Q149.4375 261.74335 150.23438 261.74335Q151.39062 261.74335 152.07812 262.5246Q152.76562 263.29022 152.76562 264.60272Q152.76562 265.91522 152.04688 266.68085Q151.34375 267.44647 150.0625 267.44647Q148.9375 267.44647 148.21875 266.82147Q147.5 266.18085 147.40625 265.07147L148.42188 265.07147Q148.53125 265.80585 148.95312 266.18085Q149.375 266.55585 150.0625 266.55585Q150.8125 266.55585 151.25 266.04022Q151.6875 265.5246 151.6875 264.61835Q151.6875 263.75897 151.21875 263.24335Q150.75 262.72772 149.96875 262.72772Q149.26562 262.72772 148.85938 263.0246L148.57812 263.25897L147.70312 263.04022ZM159.79688 267.32147L154.20312 267.32147L154.20312 266.54022L157.15625 263.25897Q157.8125 262.50897 158.0625 262.05585Q158.3125 261.5871 158.3125 261.0871Q158.3125 260.41522 157.90625 259.99335Q157.51562 259.55585 156.82812 259.55585Q156.03125 259.55585 155.57812 260.0246Q155.125 260.47772 155.125 261.30585L154.04688 261.30585Q154.04688 260.11835 154.79688 259.3996Q155.5625 258.66522 156.82812 258.66522Q158.03125 258.66522 158.71875 259.29022Q159.40625 259.91522 159.40625 260.9621Q159.40625 262.2121 157.79688 263.9621L155.51562 266.43085L159.79688 266.43085L159.79688 267.32147Z" fill-rule="nonzero"/><path stroke="#ffffff" stroke-width="3.0" stroke-linejoin="round" stroke-linecap="round" d="M237.79688 258.49573L232.20312 258.49573L232.20312 257.71448L235.15625 254.43323Q235.8125 253.68323 236.0625 253.2301Q236.3125 252.76135 236.3125 252.26135Q236.3125 251.58948 235.90625 251.1676Q235.51562 250.7301 234.82812 250.7301Q234.03125 250.7301 233.57812 251.19885Q233.125 251.65198 233.125 252.4801L232.04688 252.4801Q232.04688 251.2926 232.79688 250.57385Q233.5625 249.83948 234.82812 249.83948Q236.03125 249.83948 236.71875 250.46448Q237.40625 251.08948 237.40625 252.13635Q237.40625 253.38635 235.79688 255.13635L233.51562 257.6051L237.79688 257.6051L237.79688 258.49573ZM244.79688 258.49573L239.20312 258.49573L239.20312 257.71448L242.15625 254.43323Q242.8125 253.68323 243.0625 253.2301Q243.3125 252.76135 243.3125 252.26135Q243.3125 251.58948 242.90625 251.1676Q242.51562 250.7301 241.82812 250.7301Q241.03125 250.7301 240.57812 251.19885Q240.125 251.65198 240.125 252.4801L239.04688 252.4801Q239.04688 251.2926 239.79688 250.57385Q240.5625 249.83948 241.82812 249.83948Q243.03125 249.83948 243.71875 250.46448Q244.40625 251.08948 244.40625 252.13635Q244.40625 253.38635 242.79688 255.13635L240.51562 257.6051L244.79688 257.6051L244.79688 258.49573ZM250.46875 249.96448L250.46875 250.87073L250.26562 250.87073Q249.0 250.90198 248.25 251.63635Q247.5 252.3551 247.375 253.6676Q248.0625 252.90198 249.21875 252.90198Q250.32812 252.90198 251.0 253.68323Q251.67188 254.46448 251.67188 255.71448Q251.67188 257.02698 250.95312 257.82385Q250.23438 258.62073 249.01562 258.62073Q247.79688 258.62073 247.03125 257.68323Q246.28125 256.7301 246.28125 255.24573L246.28125 254.83948Q246.28125 252.4801 247.28125 251.2301Q248.28125 249.9801 250.26562 249.96448L250.46875 249.96448ZM249.04688 253.80823Q248.48438 253.80823 248.01562 254.13635Q247.54688 254.46448 247.35938 254.9801L247.35938 255.37073Q247.35938 256.43323 247.82812 257.07385Q248.3125 257.71448 249.01562 257.71448Q249.75 257.71448 250.17188 257.18323Q250.59375 256.63635 250.59375 255.76135Q250.59375 254.88635 250.17188 254.3551Q249.75 253.80823 249.04688 253.80823Z" fill-rule="nonzero"/><path fill="#4285f4" d="M237.79688 258.49573L232.20312 258.49573L232.20312 257.71448L235.15625 254.43323Q235.8125 253.68323 236.0625 253.2301Q236.3125 252.76135 236.3125 252.26135Q236.3125 251.58948 235.90625 251.1676Q235.51562 250.7301 234.82812 250.7301Q234.03125 250.7301 233.57812 251.19885Q233.125 251.65198 233.125 252.4801L232.04688 252.4801Q232.04688 251.2926 232.79688 250.57385Q233.5625 249.83948 234.82812 249.83948Q236.03125 249.83948 236.71875 250.46448Q237.40625 251.08948 237.40625 252.13635Q237.40625 253.38635 235.79688 255.13635L233.51562 257.6051L237.79688 257.6051L237.79688 258.49573ZM244.79688 258.49573L239.20312 258.49573L239.20312 257.71448L242.15625 254.43323Q242.8125 253.68323 243.0625 253.2301Q243.3125 252.76135 243.3125 252.26135Q243.3125 251.58948 242.90625 251.1676Q242.51562 250.7301 241.82812 250.7301Q241.03125 250.7301 240.57812 251.19885Q240.125 251.65198 240.125 252.4801L239.04688 252.4801Q239.04688 251.2926 239.79688 250.57385Q240.5625 249.83948 241.82812 249.83948Q243.03125 249.83948 243.71875 250.46448Q244.40625 251.08948 244.40625 252.13635Q244.40625 253.38635 242.79688 255.13635L240.51562 257.6051L244.79688 257.6051L244.79688 258.49573ZM250.46875 249.96448L250.46875 250.87073L250.26562 250.87073Q249.0 250.90198 248.25 251.63635Q247.5 252.3551 247.375 253.6676Q248.0625 252.90198 249.21875 252.90198Q250.32812 252.90198 251.0 253.68323Q251.67188 254.46448 251.67188 255.71448Q251.67188 257.02698 250.95312 257.82385Q250.23438 258.62073 249.01562 258.62073Q247.79688 258.62073 247.03125 257.68323Q246.28125 256.7301 246.28125 255.24573L246.28125 254.83948Q246.28125 252.4801 247.28125 251.2301Q248.28125 249.9801 250.26562 249.96448L250.46875 249.96448ZM249.04688 253.80823Q248.48438 253.80823 248.01562 254.13635Q247.54688 254.46448 247.35938 254.9801L247.35938 255.37073Q247.35938 256.43323 247.82812 257.07385Q248.3125 257.71448 249.01562 257.71448Q249.75 257.71448 250.17188 257.18323Q250.59375 256.63635 250.59375 255.76135Q250.59375 254.88635 250.17188 254.3551Q249.75 253.80823 249.04688 253.80823Z" fill-rule="nonzero"/><path stroke="#ffffff" stroke-width="3.0" stroke-linejoin="round" stroke-linecap="round" d="M329.78125 226.65456L330.96875 226.65456L330.96875 227.52956L329.78125 227.52956L329.78125 229.51393L328.70312 229.51393L328.70312 227.52956L324.8125 227.52956L324.8125 226.88893L328.625 220.98268L329.78125 220.98268L329.78125 226.65456ZM326.04688 226.65456L328.70312 226.65456L328.70312 222.46706L328.5625 222.70143L326.04688 226.65456ZM336.46875 220.98268L336.46875 221.88893L336.26562 221.88893Q335.0 221.92018 334.25 222.65456Q333.5 223.3733 333.375 224.6858Q334.0625 223.92018 335.21875 223.92018Q336.32812 223.92018 337.0 224.70143Q337.67188 225.48268 337.67188 226.73268Q337.67188 228.04518 336.95312 228.84206Q336.23438 229.63893 335.01562 229.63893Q333.79688 229.63893 333.03125 228.70143Q332.28125 227.7483 332.28125 226.26393L332.28125 225.85768Q332.28125 223.4983 333.28125 222.2483Q334.28125 220.9983 336.26562 220.98268L336.46875 220.98268ZM335.04688 224.82643Q334.48438 224.82643 334.01562 225.15456Q333.54688 225.48268 333.35938 225.9983L333.35938 226.38893Q333.35938 227.45143 333.82812 228.09206Q334.3125 228.73268 335.01562 228.73268Q335.75 228.73268 336.17188 228.20143Q336.59375 227.65456 336.59375 226.77956Q336.59375 225.90456 336.17188 225.3733Q335.75 224.82643 335.04688 224.82643ZM343.35938 225.76393Q343.03125 226.17018 342.54688 226.42018Q342.07812 226.65456 341.51562 226.65456Q340.78125 226.65456 340.23438 226.29518Q339.6875 225.9358 339.39062 225.27956Q339.09375 224.60768 339.09375 223.8108Q339.09375 222.96706 339.40625 222.27956Q339.73438 221.59206 340.32812 221.23268Q340.9375 220.85768 341.73438 220.85768Q343.0 220.85768 343.71875 221.8108Q344.45312 222.76393 344.45312 224.38893L344.45312 224.70143Q344.45312 227.20143 343.46875 228.34206Q342.48438 229.48268 340.5 229.51393L340.28125 229.51393L340.28125 228.60768L340.51562 228.60768Q341.85938 228.57643 342.57812 227.90456Q343.29688 227.23268 343.35938 225.76393ZM341.6875 225.76393Q342.23438 225.76393 342.6875 225.4358Q343.15625 225.09206 343.375 224.60768L343.375 224.17018Q343.375 223.10768 342.90625 222.4358Q342.4375 221.76393 341.73438 221.76393Q341.01562 221.76393 340.57812 222.3108Q340.15625 222.85768 340.15625 223.76393Q340.15625 224.63893 340.5625 225.20143Q340.98438 225.76393 341.6875 225.76393Z" fill-rule="nonzero"/><path fill="#4285f4" d="M329.78125 226.65456L330.96875 226.65456L330.96875 227.52956L329.78125 227.52956L329.78125 229.51393L328.70312 229.51393L328.70312 227.52956L324.8125 227.52956L324.8125 226.88893L328.625 220.98268L329.78125 220.98268L329.78125 226.65456ZM326.04688 226.65456L328.70312 226.65456L328.70312 222.46706L328.5625 222.70143L326.04688 226.65456ZM336.46875 220.98268L336.46875 221.88893L336.26562 221.88893Q335.0 221.92018 334.25 222.65456Q333.5 223.3733 333.375 224.6858Q334.0625 223.92018 335.21875 223.92018Q336.32812 223.92018 337.0 224.70143Q337.67188 225.48268 337.67188 226.73268Q337.67188 228.04518 336.95312 228.84206Q336.23438 229.63893 335.01562 229.63893Q333.79688 229.63893 333.03125 228.70143Q332.28125 227.7483 332.28125 226.26393L332.28125 225.85768Q332.28125 223.4983 333.28125 222.2483Q334.28125 220.9983 336.26562 220.98268L336.46875 220.98268ZM335.04688 224.82643Q334.48438 224.82643 334.01562 225.15456Q333.54688 225.48268 333.35938 225.9983L333.35938 226.38893Q333.35938 227.45143 333.82812 228.09206Q334.3125 228.73268 335.01562 228.73268Q335.75 228.73268 336.17188 228.20143Q336.59375 227.65456 336.59375 226.77956Q336.59375 225.90456 336.17188 225.3733Q335.75 224.82643 335.04688 224.82643ZM343.35938 225.76393Q343.03125 226.17018 342.54688 226.42018Q342.07812 226.65456 341.51562 226.65456Q340.78125 226.65456 340.23438 226.29518Q339.6875 225.9358 339.39062 225.27956Q339.09375 224.60768 339.09375 223.8108Q339.09375 222.96706 339.40625 222.27956Q339.73438 221.59206 340.32812 221.23268Q340.9375 220.85768 341.73438 220.85768Q343.0 220.85768 343.71875 221.8108Q344.45312 222.76393 344.45312 224.38893L344.45312 224.70143Q344.45312 227.20143 343.46875 228.34206Q342.48438 229.48268 340.5 229.51393L340.28125 229.51393L340.28125 228.60768L340.51562 228.60768Q341.85938 228.57643 342.57812 227.90456Q343.29688 227.23268 343.35938 225.76393ZM341.6875 225.76393Q342.23438 225.76393 342.6875 225.4358Q343.15625 225.09206 343.375 224.60768L343.375 224.17018Q343.375 223.10768 342.90625 222.4358Q342.4375 221.76393 341.73438 221.76393Q341.01562 221.76393 340.57812 222.3108Q340.15625 222.85768 340.15625 223.76393Q340.15625 224.63893 340.5625 225.20143Q340.98438 225.76393 341.6875 225.76393Z" fill-rule="nonzero"/><path stroke="#ffffff" stroke-width="3.0" stroke-linejoin="round" stroke-linecap="round" d="M421.35938 166.01134Q421.03125 166.41759 420.54688 166.66759Q420.07812 166.90196 419.51562 166.90196Q418.78125 166.90196 418.23438 166.54259Q417.6875 166.18321 417.39062 165.52696Q417.09375 164.85509 417.09375 164.05821Q417.09375 163.21446 417.40625 162.52696Q417.73438 161.83946 418.32812 161.48009Q418.9375 161.10509 419.73438 161.10509Q421.0 161.10509 421.71875 162.05821Q422.45312 163.01134 422.45312 164.63634L422.45312 164.94884Q422.45312 167.44884 421.46875 168.58946Q420.48438 169.73009 418.5 169.76134L418.28125 169.76134L418.28125 168.85509L418.51562 168.85509Q419.85938 168.82384 420.57812 168.15196Q421.29688 167.48009 421.35938 166.01134ZM419.6875 166.01134Q420.23438 166.01134 420.6875 165.68321Q421.15625 165.33946 421.375 164.85509L421.375 164.41759Q421.375 163.35509 420.90625 162.68321Q420.4375 162.01134 419.73438 162.01134Q419.01562 162.01134 418.57812 162.55821Q418.15625 163.10509 418.15625 164.01134Q418.15625 164.88634 418.5625 165.44884Q418.98438 166.01134 419.6875 166.01134ZM429.71875 161.83946L426.1875 169.76134L425.04688 169.76134L428.5625 162.12071L423.95312 162.12071L423.95312 161.23009L429.71875 161.23009L429.71875 161.83946ZM436.5625 166.12071Q436.5625 168.02696 435.90625 168.96446Q435.26562 169.88634 433.875 169.88634Q432.51562 169.88634 431.85938 168.98009Q431.20312 168.07384 431.17188 166.26134L431.17188 164.82384Q431.17188 162.93321 431.8125 162.02696Q432.46875 161.10509 433.85938 161.10509Q435.23438 161.10509 435.89062 161.99571Q436.54688 162.87071 436.5625 164.71446L436.5625 166.12071ZM435.46875 164.63634Q435.46875 163.26134 435.07812 162.63634Q434.70312 161.99571 433.85938 161.99571Q433.03125 161.99571 432.64062 162.63634Q432.26562 163.26134 432.26562 164.55821L432.26562 166.29259Q432.26562 167.66759 432.65625 168.33946Q433.0625 168.99571 433.875 168.99571Q434.67188 168.99571 435.0625 168.37071Q435.45312 167.74571 435.46875 166.41759L435.46875 164.63634Z" fill-rule="nonzero"/><path fill="#4285f4" d="M421.35938 166.01134Q421.03125 166.41759 420.54688 166.66759Q420.07812 166.90196 419.51562 166.90196Q418.78125 166.90196 418.23438 166.54259Q417.6875 166.18321 417.39062 165.52696Q417.09375 164.85509 417.09375 164.05821Q417.09375 163.21446 417.40625 162.52696Q417.73438 161.83946 418.32812 161.48009Q418.9375 161.10509 419.73438 161.10509Q421.0 161.10509 421.71875 162.05821Q422.45312 163.01134 422.45312 164.63634L422.45312 164.94884Q422.45312 167.44884 421.46875 168.58946Q420.48438 169.73009 418.5 169.76134L418.28125 169.76134L418.28125 168.85509L418.51562 168.85509Q419.85938 168.82384 420.57812 168.15196Q421.29688 167.48009 421.35938 166.01134ZM419.6875 166.01134Q420.23438 166.01134 420.6875 165.68321Q421.15625 165.33946 421.375 164.85509L421.375 164.41759Q421.375 163.35509 420.90625 162.68321Q420.4375 162.01134 419.73438 162.01134Q419.01562 162.01134 418.57812 162.55821Q418.15625 163.10509 418.15625 164.01134Q418.15625 164.88634 418.5625 165.44884Q418.98438 166.01134 419.6875 166.01134ZM429.71875 161.83946L426.1875 169.76134L425.04688 169.76134L428.5625 162.12071L423.95312 162.12071L423.95312 161.23009L429.71875 161.23009L429.71875 161.83946ZM436.5625 166.12071Q436.5625 168.02696 435.90625 168.96446Q435.26562 169.88634 433.875 169.88634Q432.51562 169.88634 431.85938 168.98009Q431.20312 168.07384 431.17188 166.26134L431.17188 164.82384Q431.17188 162.93321 431.8125 162.02696Q432.46875 161.10509 433.85938 161.10509Q435.23438 161.10509 435.89062 161.99571Q436.54688 162.87071 436.5625 164.71446L436.5625 166.12071ZM435.46875 164.63634Q435.46875 163.26134 435.07812 162.63634Q434.70312 161.99571 433.85938 161.99571Q433.03125 161.99571 432.64062 162.63634Q432.26562 163.26134 432.26562 164.55821L432.26562 166.29259Q432.26562 167.66759 432.65625 168.33946Q433.0625 168.99571 433.875 168.99571Q434.67188 168.99571 435.0625 168.37071Q435.45312 167.74571 435.46875 166.41759L435.46875 164.63634Z" fill-rule="nonzero"/><path stroke="#ffffff" stroke-width="3.0" stroke-linejoin="round" stroke-linecap="round" d="M507.76562 48.347866L506.6875 48.347866L506.6875 41.129116L504.5 41.92599L504.5 40.941616L507.60938 39.76974L507.76562 39.76974L507.76562 48.347866ZM518.3594 44.597866Q518.03125 45.004116 517.5469 45.254116Q517.0781 45.48849 516.5156 45.48849Q515.78125 45.48849 515.2344 45.129116Q514.6875 44.76974 514.3906 44.11349Q514.09375 43.441616 514.09375 42.64474Q514.09375 41.80099 514.40625 41.11349Q514.7344 40.42599 515.3281 40.066616Q515.9375 39.691616 516.7344 39.691616Q518.0 39.691616 518.71875 40.64474Q519.4531 41.597866 519.4531 43.222866L519.4531 43.535366Q519.4531 46.035366 518.46875 47.17599Q517.4844 48.316616 515.5 48.347866L515.28125 48.347866L515.28125 47.441616L515.5156 47.441616Q516.8594 47.410366 517.5781 46.73849Q518.2969 46.066616 518.3594 44.597866ZM516.6875 44.597866Q517.2344 44.597866 517.6875 44.26974Q518.15625 43.92599 518.375 43.441616L518.375 43.004116Q518.375 41.941616 517.90625 41.26974Q517.4375 40.597866 516.7344 40.597866Q516.0156 40.597866 515.5781 41.14474Q515.15625 41.691616 515.15625 42.597866Q515.15625 43.472866 515.5625 44.035366Q515.9844 44.597866 516.6875 44.597866ZM526.3906 42.035366Q526.3906 42.67599 526.0469 43.17599Q525.7031 43.67599 525.1406 43.95724Q525.7969 44.23849 526.1875 44.80099Q526.5781 45.347866 526.5781 46.05099Q526.5781 47.14474 525.8281 47.816616Q525.09375 48.472866 523.875 48.472866Q522.6406 48.472866 521.8906 47.816616Q521.15625 47.14474 521.15625 46.05099Q521.15625 45.347866 521.53125 44.80099Q521.90625 44.23849 522.5781 43.95724Q522.0156 43.67599 521.6875 43.17599Q521.3594 42.67599 521.3594 42.035366Q521.3594 40.95724 522.0469 40.33224Q522.7344 39.691616 523.875 39.691616Q525.0 39.691616 525.6875 40.33224Q526.3906 40.95724 526.3906 42.035366ZM525.5 46.01974Q525.5 45.30099 525.0469 44.86349Q524.59375 44.410366 523.8594 44.410366Q523.125 44.410366 522.6719 44.86349Q522.2344 45.30099 522.2344 46.035366Q522.2344 46.754116 522.6719 47.17599Q523.1094 47.58224 523.875 47.58224Q524.625 47.58224 525.0625 47.160366Q525.5 46.73849 525.5 46.01974ZM523.875 40.58224Q523.2344 40.58224 522.8281 40.98849Q522.4375 41.379116 522.4375 42.066616Q522.4375 42.70724 522.8281 43.11349Q523.21875 43.51974 523.8594 43.51974Q524.5156 43.51974 524.90625 43.11349Q525.2969 42.70724 525.2969 42.066616Q525.2969 41.410366 524.8906 41.004116Q524.4844 40.58224 523.875 40.58224ZM533.3906 42.035366Q533.3906 42.67599 533.0469 43.17599Q532.7031 43.67599 532.1406 43.95724Q532.7969 44.23849 533.1875 44.80099Q533.5781 45.347866 533.5781 46.05099Q533.5781 47.14474 532.8281 47.816616Q532.09375 48.472866 530.875 48.472866Q529.6406 48.472866 528.8906 47.816616Q528.15625 47.14474 528.15625 46.05099Q528.15625 45.347866 528.53125 44.80099Q528.90625 44.23849 529.5781 43.95724Q529.0156 43.67599 528.6875 43.17599Q528.3594 42.67599 528.3594 42.035366Q528.3594 40.95724 529.0469 40.33224Q529.7344 39.691616 530.875 39.691616Q532.0 39.691616 532.6875 40.33224Q533.3906 40.95724 533.3906 42.035366ZM532.5 46.01974Q532.5 45.30099 532.0469 44.86349Q531.59375 44.410366 530.8594 44.410366Q530.125 44.410366 529.6719 44.86349Q529.2344 45.30099 529.2344 46.035366Q529.2344 46.754116 529.6719 47.17599Q530.1094 47.58224 530.875 47.58224Q531.625 47.58224 532.0625 47.160366Q532.5 46.73849 532.5 46.01974ZM530.875 40.58224Q530.2344 40.58224 529.8281 40.98849Q529.4375 41.379116 529.4375 42.066616Q529.4375 42.70724 529.8281 43.11349Q530.21875 43.51974 530.8594 43.51974Q531.5156 43.51974 531.90625 43.11349Q532.2969 42.70724 532.2969 42.066616Q532.2969 41.410366 531.8906 41.004116Q531.4844 40.58224 530.875 40.58224Z" fill-rule="nonzero"/><path fill="#4285f4" d="M507.76562 48.347866L506.6875 48.347866L506.6875 41.129116L504.5 41.92599L504.5 40.941616L507.60938 39.76974L507.76562 39.76974L507.76562 48.347866ZM518.3594 44.597866Q518.03125 45.004116 517.5469 45.254116Q517.0781 45.48849 516.5156 45.48849Q515.78125 45.48849 515.2344 45.129116Q514.6875 44.76974 514.3906 44.11349Q514.09375 43.441616 514.09375 42.64474Q514.09375 41.80099 514.40625 41.11349Q514.7344 40.42599 515.3281 40.066616Q515.9375 39.691616 516.7344 39.691616Q518.0 39.691616 518.71875 40.64474Q519.4531 41.597866 519.4531 43.222866L519.4531 43.535366Q519.4531 46.035366 518.46875 47.17599Q517.4844 48.316616 515.5 48.347866L515.28125 48.347866L515.28125 47.441616L515.5156 47.441616Q516.8594 47.410366 517.5781 46.73849Q518.2969 46.066616 518.3594 44.597866ZM516.6875 44.597866Q517.2344 44.597866 517.6875 44.26974Q518.15625 43.92599 518.375 43.441616L518.375 43.004116Q518.375 41.941616 517.90625 41.26974Q517.4375 40.597866 516.7344 40.597866Q516.0156 40.597866 515.5781 41.14474Q515.15625 41.691616 515.15625 42.597866Q515.15625 43.472866 515.5625 44.035366Q515.9844 44.597866 516.6875 44.597866ZM526.3906 42.035366Q526.3906 42.67599 526.0469 43.17599Q525.7031 43.67599 525.1406 43.95724Q525.7969 44.23849 526.1875 44.80099Q526.5781 45.347866 526.5781 46.05099Q526.5781 47.14474 525.8281 47.816616Q525.09375 48.472866 523.875 48.472866Q522.6406 48.472866 521.8906 47.816616Q521.15625 47.14474 521.15625 46.05099Q521.15625 45.347866 521.53125 44.80099Q521.90625 44.23849 522.5781 43.95724Q522.0156 43.67599 521.6875 43.17599Q521.3594 42.67599 521.3594 42.035366Q521.3594 40.95724 522.0469 40.33224Q522.7344 39.691616 523.875 39.691616Q525.0 39.691616 525.6875 40.33224Q526.3906 40.95724 526.3906 42.035366ZM525.5 46.01974Q525.5 45.30099 525.0469 44.86349Q524.59375 44.410366 523.8594 44.410366Q523.125 44.410366 522.6719 44.86349Q522.2344 45.30099 522.2344 46.035366Q522.2344 46.754116 522.6719 47.17599Q523.1094 47.58224 523.875 47.58224Q524.625 47.58224 525.0625 47.160366Q525.5 46.73849 525.5 46.01974ZM523.875 40.58224Q523.2344 40.58224 522.8281 40.98849Q522.4375 41.379116 522.4375 42.066616Q522.4375 42.70724 522.8281 43.11349Q523.21875 43.51974 523.8594 43.51974Q524.5156 43.51974 524.90625 43.11349Q525.2969 42.70724 525.2969 42.066616Q525.2969 41.410366 524.8906 41.004116Q524.4844 40.58224 523.875 40.58224ZM533.3906 42.035366Q533.3906 42.67599 533.0469 43.17599Q532.7031 43.67599 532.1406 43.95724Q532.7969 44.23849 533.1875 44.80099Q533.5781 45.347866 533.5781 46.05099Q533.5781 47.14474 532.8281 47.816616Q532.09375 48.472866 530.875 48.472866Q529.6406 48.472866 528.8906 47.816616Q528.15625 47.14474 528.15625 46.05099Q528.15625 45.347866 528.53125 44.80099Q528.90625 44.23849 529.5781 43.95724Q529.0156 43.67599 528.6875 43.17599Q528.3594 42.67599 528.3594 42.035366Q528.3594 40.95724 529.0469 40.33224Q529.7344 39.691616 530.875 39.691616Q532.0 39.691616 532.6875 40.33224Q533.3906 40.95724 533.3906 42.035366ZM532.5 46.01974Q532.5 45.30099 532.0469 44.86349Q531.59375 44.410366 530.8594 44.410366Q530.125 44.410366 529.6719 44.86349Q529.2344 45.30099 529.2344 46.035366Q529.2344 46.754116 529.6719 47.17599Q530.1094 47.58224 530.875 47.58224Q531.625 47.58224 532.0625 47.160366Q532.5 46.73849 532.5 46.01974ZM530.875 40.58224Q530.2344 40.58224 529.8281 40.98849Q529.4375 41.379116 529.4375 42.066616Q529.4375 42.70724 529.8281 43.11349Q530.21875 43.51974 530.8594 43.51974Q531.5156 43.51974 531.90625 43.11349Q532.2969 42.70724 532.2969 42.066616Q532.2969 41.410366 531.8906 41.004116Q531.4844 40.58224 530.875 40.58224Z" fill-rule="nonzero"/><path fill="#000000" d="M316.875 349.45L316.875 340.85626L318.01562 340.85626L318.01562 348.4344L322.25 348.4344L322.25 349.45L316.875 349.45ZM323.79688 342.075L323.79688 340.85626L324.85938 340.85626L324.85938 342.075L323.79688 342.075ZM323.79688 349.45L323.79688 343.23126L324.85938 343.23126L324.85938 349.45L323.79688 349.45ZM327.76562 349.45L326.78125 349.45L326.78125 340.85626L327.84375 340.85626L327.84375 343.91876Q328.51562 343.09064 329.54688 343.09064Q330.125 343.09064 330.625 343.325Q331.14062 343.54376 331.46875 343.96564Q331.8125 344.3875 332.0 344.98126Q332.1875 345.575 332.1875 346.2469Q332.1875 347.84064 331.39062 348.71564Q330.59375 349.59064 329.5 349.59064Q328.39062 349.59064 327.76562 348.66876L327.76562 349.45ZM327.75 346.29376Q327.75 347.40314 328.0625 347.90314Q328.5625 348.71564 329.40625 348.71564Q330.09375 348.71564 330.59375 348.1219Q331.10938 347.52814 331.10938 346.325Q331.10938 345.10626 330.625 344.52814Q330.14062 343.95 329.45312 343.95Q328.76562 343.95 328.25 344.5594Q327.75 345.15314 327.75 346.29376ZM333.78125 349.45L333.78125 343.23126L334.73438 343.23126L334.73438 344.16876Q335.09375 343.5125 335.39062 343.3094Q335.70312 343.09064 336.07812 343.09064Q336.60938 343.09064 337.15625 343.41876L336.79688 344.40314Q336.40625 344.16876 336.03125 344.16876Q335.67188 344.16876 335.39062 344.3875Q335.125 344.59064 335.01562 344.96564Q334.82812 345.52814 334.82812 346.1844L334.82812 349.45L333.78125 349.45ZM341.85938 348.6844Q341.26562 349.1844 340.71875 349.3875Q340.1875 349.59064 339.5625 349.59064Q338.53125 349.59064 337.98438 349.09064Q337.4375 348.59064 337.4375 347.8094Q337.4375 347.35626 337.64062 346.98126Q337.84375 346.59064 338.1875 346.3719Q338.53125 346.1375 338.95312 346.02814Q339.25 345.9344 339.89062 345.85626Q341.15625 345.71564 341.76562 345.4969Q341.76562 345.27814 341.76562 345.23126Q341.76562 344.575 341.46875 344.3094Q341.0625 343.96564 340.26562 343.96564Q339.53125 343.96564 339.17188 344.23126Q338.8125 344.48126 338.64062 345.1375L337.60938 344.9969Q337.75 344.34064 338.07812 343.9344Q338.40625 343.52814 339.01562 343.3094Q339.625 343.09064 340.42188 343.09064Q341.21875 343.09064 341.71875 343.27814Q342.21875 343.46564 342.45312 343.7469Q342.6875 344.02814 342.78125 344.46564Q342.82812 344.73126 342.82812 345.4344L342.82812 346.84064Q342.82812 348.3094 342.89062 348.7Q342.96875 349.09064 343.17188 349.45L342.0625 349.45Q341.90625 349.1219 341.85938 348.6844ZM341.76562 346.325Q341.1875 346.5594 340.04688 346.73126Q339.39062 346.825 339.125 346.95Q338.85938 347.0594 338.70312 347.27814Q338.5625 347.4969 338.5625 347.77814Q338.5625 348.2 338.875 348.48126Q339.20312 348.7625 339.8125 348.7625Q340.42188 348.7625 340.89062 348.4969Q341.375 348.23126 341.59375 347.7625Q341.76562 347.40314 341.76562 346.71564L341.76562 346.325ZM344.78125 349.45L344.78125 343.23126L345.73438 343.23126L345.73438 344.16876Q346.09375 343.5125 346.39062 343.3094Q346.70312 343.09064 347.07812 343.09064Q347.60938 343.09064 348.15625 343.41876L347.79688 344.40314Q347.40625 344.16876 347.03125 344.16876Q346.67188 344.16876 346.39062 344.3875Q346.125 344.59064 346.01562 344.96564Q345.82812 345.52814 345.82812 346.1844L345.82812 349.45L344.78125 349.45ZM348.75 351.84064L348.625 350.85626Q348.96875 350.95 349.23438 350.95Q349.57812 350.95 349.78125 350.825Q350.0 350.71564 350.14062 350.5125Q350.23438 350.34064 350.46875 349.71564Q350.48438 349.6375 350.5625 349.46564L348.1875 343.23126L349.32812 343.23126L350.625 346.825Q350.875 347.5125 351.07812 348.27814Q351.26562 347.54376 351.51562 346.85626L352.84375 343.23126L353.89062 343.23126L351.53125 349.5594Q351.14062 350.575 350.9375 350.96564Q350.65625 351.4969 350.28125 351.73126Q349.92188 351.98126 349.42188 351.98126Q349.125 351.98126 348.75 351.84064Z" fill-rule="nonzero"/><path fill="#000000" d="M29.550013 227.74583L20.956263 227.74583L20.956263 223.93333Q20.956263 222.77708 21.190638 222.18333Q21.425013 221.58958 22.018763 221.23021Q22.596888 220.87083 23.300013 220.87083Q24.221888 220.87083 24.846888 221.46458Q25.471888 222.05833 25.643763 223.29271Q25.862513 222.83958 26.065638 222.60521Q26.518763 222.10521 27.206263 221.66771L29.550013 220.16771L29.550013 221.60521L27.768763 222.73021Q26.987513 223.23021 26.581263 223.55833Q26.175013 223.87083 26.018763 224.13646Q25.846888 224.38646 25.768763 224.65208Q25.737513 224.83958 25.737513 225.27708L25.737513 226.60521L29.550013 226.60521L29.550013 227.74583ZM24.753138 226.60521L24.753138 224.15208Q24.753138 223.38646 24.596888 222.94896Q24.425013 222.49583 24.081263 222.27708Q23.721888 222.04271 23.300013 222.04271Q22.690638 222.04271 22.300013 222.49583Q21.909388 222.93333 21.909388 223.88646L21.909388 226.60521L24.753138 226.60521ZM27.550013 214.63646L27.675013 213.54271Q28.628138 213.79271 29.159388 214.49583Q29.690638 215.19896 29.690638 216.27708Q29.690638 217.63646 28.846888 218.44896Q28.003138 219.24583 26.487513 219.24583Q24.925013 219.24583 24.065638 218.43333Q23.190638 217.62083 23.190638 216.33958Q23.190638 215.08958 24.034388 214.30833Q24.878138 213.51146 26.425013 213.51146Q26.518763 213.51146 26.706263 213.51146L26.706263 218.15208Q27.737513 218.08958 28.284388 217.57396Q28.815638 217.05833 28.815638 216.27708Q28.815638 215.69896 28.518763 215.29271Q28.206263 214.87083 27.550013 214.63646ZM25.846888 218.08958L25.846888 214.62083Q25.050013 214.68333 24.659388 215.01146Q24.050013 215.52708 24.050013 216.32396Q24.050013 217.05833 24.534388 217.55833Q25.018763 218.04271 25.846888 218.08958ZM27.690638 212.30833L27.534388 211.27708Q28.159388 211.18333 28.487513 210.79271Q28.815638 210.38646 28.815638 209.65208Q28.815638 208.93333 28.534388 208.58958Q28.237513 208.23021 27.831263 208.23021Q27.471888 208.23021 27.268763 208.54271Q27.128138 208.76146 26.909388 209.62083Q26.612513 210.77708 26.409388 211.23021Q26.190638 211.66771 25.815638 211.90208Q25.440638 212.13646 24.971888 212.13646Q24.565638 212.13646 24.206263 211.94896Q23.846888 211.76146 23.612513 211.43333Q23.440638 211.18333 23.315638 210.76146Q23.190638 210.33958 23.190638 209.83958Q23.190638 209.12083 23.409388 208.57396Q23.612513 208.01146 23.971888 207.74583Q24.331263 207.48021 24.925013 207.38646L25.065638 208.41771Q24.596888 208.48021 24.331263 208.82396Q24.050013 209.15208 24.050013 209.77708Q24.050013 210.49583 24.300013 210.80833Q24.534388 211.12083 24.862513 211.12083Q25.065638 211.12083 25.221888 210.99583Q25.393763 210.85521 25.503138 210.58958Q25.565638 210.43333 25.768763 209.65208Q26.081263 208.52708 26.268763 208.08958Q26.456263 207.65208 26.815638 207.40208Q27.175013 207.15208 27.721888 207.15208Q28.253138 207.15208 28.721888 207.46458Q29.175013 207.76146 29.440638 208.33958Q29.690638 208.91771 29.690638 209.65208Q29.690638 210.87083 29.190638 211.51146Q28.675013 212.13646 27.690638 212.30833ZM29.550013 200.80833L28.628138 200.80833Q29.690638 201.54271 29.690638 202.79271Q29.690638 203.33958 29.487513 203.82396Q29.268763 204.29271 28.956263 204.52708Q28.628138 204.76146 28.159388 204.85521Q27.862513 204.91771 27.175013 204.91771L23.331263 204.91771L23.331263 203.85521L26.784388 203.85521Q27.596888 203.85521 27.893763 203.79271Q28.300013 203.69896 28.550013 203.38646Q28.784388 203.05833 28.784388 202.57396Q28.784388 202.10521 28.550013 201.69896Q28.300013 201.27708 27.878138 201.10521Q27.456263 200.91771 26.659388 200.91771L23.331263 200.91771L23.331263 199.87083L29.550013 199.87083L29.550013 200.80833ZM29.550013 197.91771L20.956263 197.91771L20.956263 196.85521L29.550013 196.85521L29.550013 197.91771ZM28.612513 192.58958L29.534388 192.43333Q29.628138 192.88646 29.628138 193.23021Q29.628138 193.80833 29.456263 194.12083Q29.268763 194.43333 28.971888 194.57396Q28.675013 194.69896 27.721888 194.69896L24.143763 194.69896L24.143763 195.46458L23.331263 195.46458L23.331263 194.69896L21.784388 194.69896L21.159388 193.65208L23.331263 193.65208L23.331263 192.58958L24.143763 192.58958L24.143763 193.65208L27.784388 193.65208Q28.237513 193.65208 28.362513 193.60521Q28.487513 193.54271 28.565638 193.41771Q28.643763 193.29271 28.643763 193.05833Q28.643763 192.87083 28.612513 192.58958ZM31.940638 188.87083L20.956263 188.87083L20.956263 186.54271L21.831263 186.54271L21.831263 187.80833L31.065638 187.80833L31.065638 186.54271L31.940638 186.54271L31.940638 188.87083ZM26.440638 186.27708Q24.706263 186.27708 23.878138 185.32396Q23.190638 184.52708 23.190638 183.37083Q23.190638 182.08958 24.034388 181.27708Q24.862513 180.44896 26.346888 180.44896Q27.550013 180.44896 28.237513 180.80833Q28.925013 181.16771 29.315638 181.87083Q29.690638 182.55833 29.690638 183.37083Q29.690638 184.66771 28.862513 185.48021Q28.018763 186.27708 26.440638 186.27708ZM26.440638 185.19896Q27.628138 185.19896 28.221888 184.68333Q28.815638 184.15208 28.815638 183.37083Q28.815638 182.57396 28.221888 182.05833Q27.628138 181.54271 26.409388 181.54271Q25.253138 181.54271 24.659388 182.07396Q24.065638 182.58958 24.065638 183.37083Q24.065638 184.15208 24.659388 184.68333Q25.237513 185.19896 26.440638 185.19896ZM31.940638 178.88646L23.331263 178.88646L23.331263 177.93333L24.128138 177.93333Q23.659388 177.58958 23.425013 177.16771Q23.190638 176.73021 23.190638 176.12083Q23.190638 175.32396 23.596888 174.71458Q24.003138 174.10521 24.753138 173.80833Q25.503138 173.49583 26.393763 173.49583Q27.346888 173.49583 28.112513 173.83958Q28.878138 174.16771 29.284388 174.82396Q29.690638 175.48021 29.690638 176.19896Q29.690638 176.73021 29.471888 177.15208Q29.237513 177.57396 28.909388 177.83958L31.940638 177.83958L31.940638 178.88646ZM26.471888 177.93333Q27.675013 177.93333 28.253138 177.44896Q28.815638 176.96458 28.815638 176.27708Q28.815638 175.57396 28.221888 175.07396Q27.628138 174.57396 26.378138 174.57396Q25.190638 174.57396 24.612513 175.05833Q24.018763 175.54271 24.018763 176.23021Q24.018763 176.90208 24.643763 177.41771Q25.268763 177.93333 26.471888 177.93333ZM29.690638 172.68333L20.815638 170.19896L20.815638 169.35521L29.690638 171.83958L29.690638 172.68333ZM27.690638 169.30833L27.534388 168.27708Q28.159388 168.18333 28.487513 167.79271Q28.815638 167.38646 28.815638 166.65208Q28.815638 165.93333 28.534388 165.58958Q28.237513 165.23021 27.831263 165.23021Q27.471888 165.23021 27.268763 165.54271Q27.128138 165.76146 26.909388 166.62083Q26.612513 167.77708 26.409388 168.23021Q26.190638 168.66771 25.815638 168.90208Q25.440638 169.13646 24.971888 169.13646Q24.565638 169.13646 24.206263 168.94896Q23.846888 168.76146 23.612513 168.43333Q23.440638 168.18333 23.315638 167.76146Q23.190638 167.33958 23.190638 166.83958Q23.190638 166.12083 23.409388 165.57396Q23.612513 165.01146 23.971888 164.74583Q24.331263 164.48021 24.925013 164.38646L25.065638 165.41771Q24.596888 165.48021 24.331263 165.82396Q24.050013 166.15208 24.050013 166.77708Q24.050013 167.49583 24.300013 167.80833Q24.534388 168.12083 24.862513 168.12083Q25.065638 168.12083 25.221888 167.99583Q25.393763 167.85521 25.503138 167.58958Q25.565638 167.43333 25.768763 166.65208Q26.081263 165.52708 26.268763 165.08958Q26.456263 164.65208 26.815638 164.40208Q27.175013 164.15208 27.721888 164.15208Q28.253138 164.15208 28.721888 164.46458Q29.175013 164.76146 29.440638 165.33958Q29.690638 165.91771 29.690638 166.65208Q29.690638 167.87083 29.190638 168.51146Q28.675013 169.13646 27.690638 169.30833ZM27.550013 157.63646L27.675013 156.54271Q28.628138 156.79271 29.159388 157.49583Q29.690638 158.19896 29.690638 159.27708Q29.690638 160.63646 28.846888 161.44896Q28.003138 162.24583 26.487513 162.24583Q24.925013 162.24583 24.065638 161.43333Q23.190638 160.62083 23.190638 159.33958Q23.190638 158.08958 24.034388 157.30833Q24.878138 156.51146 26.425013 156.51146Q26.518763 156.51146 26.706263 156.51146L26.706263 161.15208Q27.737513 161.08958 28.284388 160.57396Q28.815638 160.05833 28.815638 159.27708Q28.815638 158.69896 28.518763 158.29271Q28.206263 157.87083 27.550013 157.63646ZM25.846888 161.08958L25.846888 157.62083Q25.050013 157.68333 24.659388 158.01146Q24.050013 158.52708 24.050013 159.32396Q24.050013 160.05833 24.534388 160.55833Q25.018763 161.04271 25.846888 161.08958ZM27.268763 150.82396L27.409388 149.79271Q28.471888 149.96458 29.081263 150.66771Q29.690638 151.37083 29.690638 152.38646Q29.690638 153.66771 28.862513 154.44896Q28.018763 155.21458 26.456263 155.21458Q25.456263 155.21458 24.706263 154.88646Q23.940638 154.54271 23.565638 153.87083Q23.190638 153.18333 23.190638 152.37083Q23.190638 151.37083 23.706263 150.73021Q24.206263 150.07396 25.159388 149.88646L25.315638 150.91771Q24.690638 151.05833 24.378138 151.43333Q24.050013 151.80833 24.050013 152.33958Q24.050013 153.13646 24.628138 153.63646Q25.190638 154.13646 26.425013 154.13646Q27.690638 154.13646 28.253138 153.65208Q28.815638 153.16771 28.815638 152.40208Q28.815638 151.77708 28.440638 151.37083Q28.065638 150.94896 27.268763 150.82396ZM31.940638 147.12083L31.940638 149.44896L31.065638 149.44896L31.065638 148.18333L21.831263 148.18333L21.831263 149.44896L20.956263 149.44896L20.956263 147.12083L31.940638 147.12083Z" fill-rule="nonzero"/><path fill="#000000" d="M75.05 300.21564Q75.05 298.6844 75.3625 297.7625Q75.675 296.825 76.28438 296.325Q76.90938 295.825 77.84688 295.825Q78.53438 295.825 79.05 296.10626Q79.58125 296.3875 79.925 296.91876Q80.26875 297.4344 80.45625 298.1844Q80.64375 298.9344 80.64375 300.21564Q80.64375 301.73126 80.33125 302.65314Q80.03438 303.575 79.40938 304.09064Q78.8 304.59064 77.84688 304.59064Q76.6125 304.59064 75.89375 303.7Q75.05 302.6375 75.05 300.21564ZM76.12813 300.21564Q76.12813 302.325 76.62813 303.02814Q77.12813 303.73126 77.84688 303.73126Q78.58125 303.73126 79.06563 303.02814Q79.56563 302.325 79.56563 300.21564Q79.56563 298.09064 79.06563 297.40314Q78.58125 296.7 77.83125 296.7Q77.1125 296.7 76.675 297.3094Q76.12813 298.09064 76.12813 300.21564Z" fill-rule="nonzero"/><path fill="#000000" d="M61.05 242.56667L62.159374 242.47292Q62.284374 243.28542 62.721874 243.69167Q63.175 244.09792 63.815624 244.09792Q64.56563 244.09792 65.09688 243.51979Q65.62813 242.94167 65.62813 242.00417Q65.62813 241.09792 65.1125 240.58229Q64.6125 240.05104 63.784374 240.05104Q63.284374 240.05104 62.8625 240.28542Q62.45625 240.51979 62.221874 240.87917L61.2375 240.75417L62.065624 236.34792L66.34688 236.34792L66.34688 237.34792L62.909374 237.34792L62.45625 239.66042Q63.221874 239.11354 64.06563 239.11354Q65.19063 239.11354 65.95625 239.89479Q66.7375 240.67604 66.7375 241.91042Q66.7375 243.06667 66.06563 243.92604Q65.2375 244.95729 63.815624 244.95729Q62.64375 244.95729 61.89375 244.30104Q61.159374 243.64479 61.05 242.56667ZM68.05 240.58229Q68.05 239.05104 68.3625 238.12917Q68.675 237.19167 69.28438 236.69167Q69.90938 236.19167 70.84688 236.19167Q71.53438 236.19167 72.05 236.47292Q72.58125 236.75417 72.925 237.28542Q73.26875 237.80104 73.45625 238.55104Q73.64375 239.30104 73.64375 240.58229Q73.64375 242.09792 73.33125 243.01979Q73.03438 243.94167 72.40938 244.45729Q71.8 244.95729 70.84688 244.95729Q69.6125 244.95729 68.89375 244.06667Q68.05 243.00417 68.05 240.58229ZM69.12813 240.58229Q69.12813 242.69167 69.62813 243.39479Q70.12813 244.09792 70.84688 244.09792Q71.58125 244.09792 72.06563 243.39479Q72.56563 242.69167 72.56563 240.58229Q72.56563 238.45729 72.06563 237.76979Q71.58125 237.06667 70.83125 237.06667Q70.1125 237.06667 69.675 237.67604Q69.12813 238.45729 69.12813 240.58229ZM75.05 240.58229Q75.05 239.05104 75.3625 238.12917Q75.675 237.19167 76.28438 236.69167Q76.90938 236.19167 77.84688 236.19167Q78.53438 236.19167 79.05 236.47292Q79.58125 236.75417 79.925 237.28542Q80.26875 237.80104 80.45625 238.55104Q80.64375 239.30104 80.64375 240.58229Q80.64375 242.09792 80.33125 243.01979Q80.03438 243.94167 79.40938 244.45729Q78.8 244.95729 77.84688 244.95729Q76.6125 244.95729 75.89375 244.06667Q75.05 243.00417 75.05 240.58229ZM76.12813 240.58229Q76.12813 242.69167 76.62813 243.39479Q77.12813 244.09792 77.84688 244.09792Q78.58125 244.09792 79.06563 243.39479Q79.56563 242.69167 79.56563 240.58229Q79.56563 238.45729 79.06563 237.76979Q78.58125 237.06667 77.83125 237.06667Q77.1125 237.06667 76.675 237.67604Q76.12813 238.45729 76.12813 240.58229Z" fill-rule="nonzero"/><path fill="#000000" d="M55.01875 185.18333L53.971874 185.18333L53.971874 178.46458Q53.58125 178.82396 52.95625 179.19896Q52.346874 179.55833 51.8625 179.73021L51.8625 178.71458Q52.7375 178.29271 53.39375 177.71458Q54.065624 177.12083 54.346874 176.55833L55.01875 176.55833L55.01875 185.18333ZM61.05 180.94896Q61.05 179.41771 61.3625 178.49583Q61.675 177.55833 62.284374 177.05833Q62.909374 176.55833 63.846874 176.55833Q64.53438 176.55833 65.05 176.83958Q65.58125 177.12083 65.925 177.65208Q66.26875 178.16771 66.45625 178.91771Q66.64375 179.66771 66.64375 180.94896Q66.64375 182.46458 66.33125 183.38646Q66.03438 184.30833 65.40938 184.82396Q64.8 185.32396 63.846874 185.32396Q62.6125 185.32396 61.89375 184.43333Q61.05 183.37083 61.05 180.94896ZM62.128124 180.94896Q62.128124 183.05833 62.628124 183.76146Q63.128124 184.46458 63.846874 184.46458Q64.58125 184.46458 65.06563 183.76146Q65.56563 183.05833 65.56563 180.94896Q65.56563 178.82396 65.06563 178.13646Q64.58125 177.43333 63.83125 177.43333Q63.1125 177.43333 62.675 178.04271Q62.128124 178.82396 62.128124 180.94896ZM68.05 180.94896Q68.05 179.41771 68.3625 178.49583Q68.675 177.55833 69.28438 177.05833Q69.90938 176.55833 70.84688 176.55833Q71.53438 176.55833 72.05 176.83958Q72.58125 177.12083 72.925 177.65208Q73.26875 178.16771 73.45625 178.91771Q73.64375 179.66771 73.64375 180.94896Q73.64375 182.46458 73.33125 183.38646Q73.03438 184.30833 72.40938 184.82396Q71.8 185.32396 70.84688 185.32396Q69.6125 185.32396 68.89375 184.43333Q68.05 183.37083 68.05 180.94896ZM69.12813 180.94896Q69.12813 183.05833 69.62813 183.76146Q70.12813 184.46458 70.84688 184.46458Q71.58125 184.46458 72.06563 183.76146Q72.56563 183.05833 72.56563 180.94896Q72.56563 178.82396 72.06563 178.13646Q71.58125 177.43333 70.83125 177.43333Q70.1125 177.43333 69.675 178.04271Q69.12813 178.82396 69.12813 180.94896ZM75.05 180.94896Q75.05 179.41771 75.3625 178.49583Q75.675 177.55833 76.28438 177.05833Q76.90938 176.55833 77.84688 176.55833Q78.53438 176.55833 79.05 176.83958Q79.58125 177.12083 79.925 177.65208Q80.26875 178.16771 80.45625 178.91771Q80.64375 179.66771 80.64375 180.94896Q80.64375 182.46458 80.33125 183.38646Q80.03438 184.30833 79.40938 184.82396Q78.8 185.32396 77.84688 185.32396Q76.6125 185.32396 75.89375 184.43333Q75.05 183.37083 75.05 180.94896ZM76.12813 180.94896Q76.12813 183.05833 76.62813 183.76146Q77.12813 184.46458 77.84688 184.46458Q78.58125 184.46458 79.06563 183.76146Q79.56563 183.05833 79.56563 180.94896Q79.56563 178.82396 79.06563 178.13646Q78.58125 177.43333 77.83125 177.43333Q77.1125 177.43333 76.675 178.04271Q76.12813 178.82396 76.12813 180.94896Z" fill-rule="nonzero"/><path fill="#000000" d="M55.01875 125.55L53.971874 125.55L53.971874 118.83125Q53.58125 119.19063 52.95625 119.56563Q52.346874 119.925 51.8625 120.09688L51.8625 119.08125Q52.7375 118.65938 53.39375 118.08125Q54.065624 117.4875 54.346874 116.925L55.01875 116.925L55.01875 125.55ZM61.05 123.3L62.159374 123.20625Q62.284374 124.01875 62.721874 124.425Q63.175 124.83125 63.815624 124.83125Q64.56563 124.83125 65.09688 124.25313Q65.62813 123.675 65.62813 122.7375Q65.62813 121.83125 65.1125 121.31563Q64.6125 120.78438 63.784374 120.78438Q63.284374 120.78438 62.8625 121.01875Q62.45625 121.25313 62.221874 121.6125L61.2375 121.4875L62.065624 117.08125L66.34688 117.08125L66.34688 118.08125L62.909374 118.08125L62.45625 120.39375Q63.221874 119.84688 64.06563 119.84688Q65.19063 119.84688 65.95625 120.62813Q66.7375 121.40938 66.7375 122.64375Q66.7375 123.8 66.06563 124.65938Q65.2375 125.69063 63.815624 125.69063Q62.64375 125.69063 61.89375 125.03438Q61.159374 124.37813 61.05 123.3ZM68.05 121.31563Q68.05 119.78438 68.3625 118.8625Q68.675 117.925 69.28438 117.425Q69.90938 116.925 70.84688 116.925Q71.53438 116.925 72.05 117.20625Q72.58125 117.4875 72.925 118.01875Q73.26875 118.53438 73.45625 119.28438Q73.64375 120.03438 73.64375 121.31563Q73.64375 122.83125 73.33125 123.75313Q73.03438 124.675 72.40938 125.19063Q71.8 125.69063 70.84688 125.69063Q69.6125 125.69063 68.89375 124.8Q68.05 123.7375 68.05 121.31563ZM69.12813 121.31563Q69.12813 123.425 69.62813 124.12813Q70.12813 124.83125 70.84688 124.83125Q71.58125 124.83125 72.06563 124.12813Q72.56563 123.425 72.56563 121.31563Q72.56563 119.19063 72.06563 118.50313Q71.58125 117.8 70.83125 117.8Q70.1125 117.8 69.675 118.40938Q69.12813 119.19063 69.12813 121.31563ZM75.05 121.31563Q75.05 119.78438 75.3625 118.8625Q75.675 117.925 76.28438 117.425Q76.90938 116.925 77.84688 116.925Q78.53438 116.925 79.05 117.20625Q79.58125 117.4875 79.925 118.01875Q80.26875 118.53438 80.45625 119.28438Q80.64375 120.03438 80.64375 121.31563Q80.64375 122.83125 80.33125 123.75313Q80.03438 124.675 79.40938 125.19063Q78.8 125.69063 77.84688 125.69063Q76.6125 125.69063 75.89375 124.8Q75.05 123.7375 75.05 121.31563ZM76.12813 121.31563Q76.12813 123.425 76.62813 124.12813Q77.12813 124.83125 77.84688 124.83125Q78.58125 124.83125 79.06563 124.12813Q79.56563 123.425 79.56563 121.31563Q79.56563 119.19063 79.06563 118.50313Q78.58125 117.8 77.83125 117.8Q77.1125 117.8 76.675 118.40938Q76.12813 119.19063 76.12813 121.31563Z" fill-rule="nonzero"/><path fill="#000000" d="M56.596874 64.90104L56.596874 65.916664L50.909374 65.916664Q50.909374 65.541664 51.034374 65.18229Q51.253124 64.604164 51.721874 64.041664Q52.20625 63.479164 53.1125 62.74479Q54.51875 61.58854 55.003124 60.916664Q55.503124 60.24479 55.503124 59.65104Q55.503124 59.02604 55.05 58.604164Q54.596874 58.166664 53.878124 58.166664Q53.1125 58.166664 52.659374 58.61979Q52.20625 59.072914 52.190624 59.885414L51.1125 59.77604Q51.221874 58.55729 51.940624 57.93229Q52.675 57.291664 53.909374 57.291664Q55.14375 57.291664 55.8625 57.979164Q56.58125 58.666664 56.58125 59.68229Q56.58125 60.197914 56.3625 60.697914Q56.159374 61.18229 55.659374 61.74479Q55.175 62.291664 54.05 63.24479Q53.096874 64.041664 52.815624 64.33854Q52.55 64.61979 52.378124 64.90104L56.596874 64.90104ZM61.05 61.68229Q61.05 60.15104 61.3625 59.229164Q61.675 58.291664 62.284374 57.791664Q62.909374 57.291664 63.846874 57.291664Q64.53438 57.291664 65.05 57.572914Q65.58125 57.854164 65.925 58.385414Q66.26875 58.90104 66.45625 59.65104Q66.64375 60.40104 66.64375 61.68229Q66.64375 63.197914 66.33125 64.11979Q66.03438 65.041664 65.40938 65.55729Q64.8 66.05729 63.846874 66.05729Q62.6125 66.05729 61.89375 65.166664Q61.05 64.104164 61.05 61.68229ZM62.128124 61.68229Q62.128124 63.791664 62.628124 64.49479Q63.128124 65.197914 63.846874 65.197914Q64.58125 65.197914 65.06563 64.49479Q65.56563 63.791664 65.56563 61.68229Q65.56563 59.55729 65.06563 58.86979Q64.58125 58.166664 63.83125 58.166664Q63.1125 58.166664 62.675 58.77604Q62.128124 59.55729 62.128124 61.68229ZM68.05 61.68229Q68.05 60.15104 68.3625 59.229164Q68.675 58.291664 69.28438 57.791664Q69.90938 57.291664 70.84688 57.291664Q71.53438 57.291664 72.05 57.572914Q72.58125 57.854164 72.925 58.385414Q73.26875 58.90104 73.45625 59.65104Q73.64375 60.40104 73.64375 61.68229Q73.64375 63.197914 73.33125 64.11979Q73.03438 65.041664 72.40938 65.55729Q71.8 66.05729 70.84688 66.05729Q69.6125 66.05729 68.89375 65.166664Q68.05 64.104164 68.05 61.68229ZM69.12813 61.68229Q69.12813 63.791664 69.62813 64.49479Q70.12813 65.197914 70.84688 65.197914Q71.58125 65.197914 72.06563 64.49479Q72.56563 63.791664 72.56563 61.68229Q72.56563 59.55729 72.06563 58.86979Q71.58125 58.166664 70.83125 58.166664Q70.1125 58.166664 69.675 58.77604Q69.12813 59.55729 69.12813 61.68229ZM75.05 61.68229Q75.05 60.15104 75.3625 59.229164Q75.675 58.291664 76.28438 57.791664Q76.90938 57.291664 77.84688 57.291664Q78.53438 57.291664 79.05 57.572914Q79.58125 57.854164 79.925 58.385414Q80.26875 58.90104 80.45625 59.65104Q80.64375 60.40104 80.64375 61.68229Q80.64375 63.197914 80.33125 64.11979Q80.03438 65.041664 79.40938 65.55729Q78.8 66.05729 77.84688 66.05729Q76.6125 66.05729 75.89375 65.166664Q75.05 64.104164 75.05 61.68229ZM76.12813 61.68229Q76.12813 63.791664 76.62813 64.49479Q77.12813 65.197914 77.84688 65.197914Q78.58125 65.197914 79.06563 64.49479Q79.56563 63.791664 79.56563 61.68229Q79.56563 59.55729 79.06563 58.86979Q78.58125 58.166664 77.83125 58.166664Q77.1125 58.166664 76.675 58.77604Q76.12813 59.55729 76.12813 61.68229Z" fill-rule="nonzero"/><path fill="#000000" d="M144.14574 310.09064L144.14574 308.85626L145.20824 308.85626L145.20824 310.09064L144.14574 310.09064ZM142.81761 319.8719L143.00511 318.96564Q143.33324 319.04376 143.50511 319.04376Q143.83324 319.04376 143.98949 318.825Q144.14574 318.6219 144.14574 317.7625L144.14574 311.23126L145.20824 311.23126L145.20824 317.79376Q145.20824 318.9344 144.91136 319.3875Q144.52074 319.98126 143.64574 319.98126Q143.20824 319.98126 142.81761 319.8719ZM146.77074 314.34064Q146.77074 312.60626 147.72386 311.77814Q148.52074 311.09064 149.67699 311.09064Q150.95824 311.09064 151.77074 311.9344Q152.59886 312.7625 152.59886 314.2469Q152.59886 315.45 152.23949 316.1375Q151.88011 316.825 151.17699 317.21564Q150.48949 317.59064 149.67699 317.59064Q148.38011 317.59064 147.56761 316.7625Q146.77074 315.91876 146.77074 314.34064ZM147.84886 314.34064Q147.84886 315.52814 148.36449 316.1219Q148.89574 316.71564 149.67699 316.71564Q150.47386 316.71564 150.98949 316.1219Q151.50511 315.52814 151.50511 314.3094Q151.50511 313.15314 150.97386 312.5594Q150.45824 311.96564 149.67699 311.96564Q148.89574 311.96564 148.36449 312.5594Q147.84886 313.1375 147.84886 314.34064ZM154.16136 310.075L154.16136 308.85626L155.22386 308.85626L155.22386 310.075L154.16136 310.075ZM154.16136 317.45L154.16136 311.23126L155.22386 311.23126L155.22386 317.45L154.16136 317.45Z" fill-rule="nonzero"/><path fill="#000000" d="M233.43224 319.84064L233.30724 318.85626Q233.65099 318.95 233.91661 318.95Q234.26036 318.95 234.46349 318.825Q234.68224 318.71564 234.82286 318.5125Q234.91661 318.34064 235.15099 317.71564Q235.16661 317.6375 235.24474 317.46564L232.86974 311.23126L234.01036 311.23126L235.30724 314.825Q235.55724 315.5125 235.76036 316.27814Q235.94786 315.54376 236.19786 314.85626L237.52599 311.23126L238.57286 311.23126L236.21349 317.5594Q235.82286 318.575 235.61974 318.96564Q235.33849 319.4969 234.96349 319.73126Q234.60411 319.98126 234.10411 319.98126Q233.80724 319.98126 233.43224 319.84064ZM242.55724 317.45L242.55724 316.52814Q241.82286 317.59064 240.57286 317.59064Q240.02599 317.59064 239.54161 317.3875Q239.07286 317.16876 238.83849 316.85626Q238.60411 316.52814 238.51036 316.0594Q238.44786 315.7625 238.44786 315.075L238.44786 311.23126L239.51036 311.23126L239.51036 314.6844Q239.51036 315.4969 239.57286 315.79376Q239.66661 316.2 239.97911 316.45Q240.30724 316.6844 240.79161 316.6844Q241.26036 316.6844 241.66661 316.45Q242.08849 316.2 242.26036 315.77814Q242.44786 315.35626 242.44786 314.5594L242.44786 311.23126L243.49474 311.23126L243.49474 317.45L242.55724 317.45ZM245.47911 319.84064L245.47911 311.23126L246.43224 311.23126L246.43224 312.02814Q246.77599 311.5594 247.19786 311.325Q247.63536 311.09064 248.24474 311.09064Q249.04161 311.09064 249.65099 311.4969Q250.26036 311.90314 250.55724 312.65314Q250.86974 313.40314 250.86974 314.29376Q250.86974 315.2469 250.52599 316.0125Q250.19786 316.77814 249.54161 317.1844Q248.88536 317.59064 248.16661 317.59064Q247.63536 317.59064 247.21349 317.3719Q246.79161 317.1375 246.52599 316.8094L246.52599 319.84064L245.47911 319.84064ZM246.43224 314.3719Q246.43224 315.575 246.91661 316.15314Q247.40099 316.71564 248.08849 316.71564Q248.79161 316.71564 249.29161 316.1219Q249.79161 315.52814 249.79161 314.27814Q249.79161 313.09064 249.30724 312.5125Q248.82286 311.91876 248.13536 311.91876Q247.46349 311.91876 246.94786 312.54376Q246.43224 313.16876 246.43224 314.3719Z" fill-rule="nonzero"/><path fill="#000000" d="M317.79688 317.45L317.79688 311.23126L318.73438 311.23126L318.73438 312.10626Q319.03125 311.6375 319.51562 311.3719Q320.0 311.09064 320.625 311.09064Q321.3125 311.09064 321.75 311.3719Q322.20312 311.65314 322.375 312.16876Q323.125 311.09064 324.29688 311.09064Q325.23438 311.09064 325.71875 311.60626Q326.21875 312.10626 326.21875 313.1844L326.21875 317.45L325.17188 317.45L325.17188 313.52814Q325.17188 312.90314 325.0625 312.6219Q324.96875 312.34064 324.70312 312.16876Q324.4375 311.9969 324.0625 311.9969Q323.40625 311.9969 322.96875 312.4344Q322.54688 312.8719 322.54688 313.84064L322.54688 317.45L321.48438 317.45L321.48438 313.40314Q321.48438 312.7 321.21875 312.35626Q320.96875 311.9969 320.39062 311.9969Q319.9375 311.9969 319.5625 312.23126Q319.1875 312.46564 319.01562 312.91876Q318.84375 313.3719 318.84375 314.21564L318.84375 317.45L317.79688 317.45ZM328.75 319.84064L328.625 318.85626Q328.96875 318.95 329.23438 318.95Q329.57812 318.95 329.78125 318.825Q330.0 318.71564 330.14062 318.5125Q330.23438 318.34064 330.46875 317.71564Q330.48438 317.6375 330.5625 317.46564L328.1875 311.23126L329.32812 311.23126L330.625 314.825Q330.875 315.5125 331.07812 316.27814Q331.26562 315.54376 331.51562 314.85626L332.84375 311.23126L333.89062 311.23126L331.53125 317.5594Q331.14062 318.575 330.9375 318.96564Q330.65625 319.4969 330.28125 319.73126Q329.92188 319.98126 329.42188 319.98126Q329.125 319.98126 328.75 319.84064ZM333.23438 317.45L333.23438 316.59064L337.20312 312.04376Q336.51562 312.075 336.0 312.075L333.46875 312.075L333.46875 311.23126L338.5625 311.23126L338.5625 311.91876L335.1875 315.8719L334.53125 316.59064Q335.25 316.54376 335.85938 316.54376L338.75 316.54376L338.75 317.45L333.23438 317.45ZM338.40625 314.34064Q338.40625 312.60626 339.35938 311.77814Q340.15625 311.09064 341.3125 311.09064Q342.59375 311.09064 343.40625 311.9344Q344.23438 312.7625 344.23438 314.2469Q344.23438 315.45 343.875 316.1375Q343.51562 316.825 342.8125 317.21564Q342.125 317.59064 341.3125 317.59064Q340.01562 317.59064 339.20312 316.7625Q338.40625 315.91876 338.40625 314.34064ZM339.48438 314.34064Q339.48438 315.52814 340.0 316.1219Q340.53125 316.71564 341.3125 316.71564Q342.10938 316.71564 342.625 316.1219Q343.14062 315.52814 343.14062 314.3094Q343.14062 313.15314 342.60938 312.5594Q342.09375 311.96564 341.3125 311.96564Q340.53125 311.96564 340.0 312.5594Q339.48438 313.1375 339.48438 314.34064ZM349.82812 317.45L349.82812 316.66876Q349.23438 317.59064 348.09375 317.59064Q347.34375 317.59064 346.71875 317.1844Q346.09375 316.7625 345.75 316.02814Q345.40625 315.29376 345.40625 314.34064Q345.40625 313.41876 345.71875 312.65314Q346.03125 311.8875 346.65625 311.4969Q347.28125 311.09064 348.04688 311.09064Q348.60938 311.09064 349.04688 311.325Q349.48438 311.5594 349.76562 311.9344L349.76562 308.85626L350.8125 308.85626L350.8125 317.45L349.82812 317.45ZM346.5 314.34064Q346.5 315.54376 347.0 316.1375Q347.5 316.71564 348.1875 316.71564Q348.875 316.71564 349.35938 316.15314Q349.84375 315.59064 349.84375 314.4344Q349.84375 313.15314 349.34375 312.5594Q348.85938 311.96564 348.14062 311.96564Q347.4375 311.96564 346.96875 312.54376Q346.5 313.10626 346.5 314.34064Z" fill-rule="nonzero"/><path fill="#000000" d="M417.55212 317.45L417.55212 316.59064L421.52087 312.04376Q420.83337 312.075 420.31775 312.075L417.7865 312.075L417.7865 311.23126L422.88025 311.23126L422.88025 311.91876L419.50525 315.8719L418.849 316.59064Q419.56775 316.54376 420.17712 316.54376L423.06775 316.54376L423.06775 317.45L417.55212 317.45ZM422.724 314.34064Q422.724 312.60626 423.67712 311.77814Q424.474 311.09064 425.63025 311.09064Q426.9115 311.09064 427.724 311.9344Q428.55212 312.7625 428.55212 314.2469Q428.55212 315.45 428.19275 316.1375Q427.83337 316.825 427.13025 317.21564Q426.44275 317.59064 425.63025 317.59064Q424.33337 317.59064 423.52087 316.7625Q422.724 315.91876 422.724 314.34064ZM423.80212 314.34064Q423.80212 315.52814 424.31775 316.1219Q424.849 316.71564 425.63025 316.71564Q426.42712 316.71564 426.94275 316.1219Q427.45837 315.52814 427.45837 314.3094Q427.45837 313.15314 426.92712 312.5594Q426.4115 311.96564 425.63025 311.96564Q424.849 311.96564 424.31775 312.5594Q423.80212 313.1375 423.80212 314.34064ZM434.14587 317.45L434.14587 316.66876Q433.55212 317.59064 432.4115 317.59064Q431.6615 317.59064 431.0365 317.1844Q430.4115 316.7625 430.06775 316.02814Q429.724 315.29376 429.724 314.34064Q429.724 313.41876 430.0365 312.65314Q430.349 311.8875 430.974 311.4969Q431.599 311.09064 432.36462 311.09064Q432.92712 311.09064 433.36462 311.325Q433.80212 311.5594 434.08337 311.9344L434.08337 308.85626L435.13025 308.85626L435.13025 317.45L434.14587 317.45ZM430.81775 314.34064Q430.81775 315.54376 431.31775 316.1375Q431.81775 316.71564 432.50525 316.71564Q433.19275 316.71564 433.67712 316.15314Q434.1615 315.59064 434.1615 314.4344Q434.1615 313.15314 433.6615 312.5594Q433.17712 311.96564 432.45837 311.96564Q431.75525 311.96564 431.2865 312.54376Q430.81775 313.10626 430.81775 314.34064Z" fill-rule="nonzero"/><path fill="#000000" d="M516.4949 316.6844Q515.9011 317.1844 515.35425 317.3875Q514.823 317.59064 514.198 317.59064Q513.16675 317.59064 512.6199 317.09064Q512.073 316.59064 512.073 315.8094Q512.073 315.35626 512.2761 314.98126Q512.47925 314.59064 512.823 314.3719Q513.16675 314.1375 513.5886 314.02814Q513.8855 313.9344 514.5261 313.85626Q515.79175 313.71564 516.4011 313.4969Q516.4011 313.27814 516.4011 313.23126Q516.4011 312.575 516.10425 312.3094Q515.698 311.96564 514.9011 311.96564Q514.16675 311.96564 513.8074 312.23126Q513.448 312.48126 513.2761 313.1375L512.2449 312.9969Q512.3855 312.34064 512.7136 311.9344Q513.04175 311.52814 513.6511 311.3094Q514.2605 311.09064 515.0574 311.09064Q515.85425 311.09064 516.35425 311.27814Q516.85425 311.46564 517.0886 311.7469Q517.323 312.02814 517.41675 312.46564Q517.4636 312.73126 517.4636 313.4344L517.4636 314.84064Q517.4636 316.3094 517.5261 316.7Q517.60425 317.09064 517.8074 317.45L516.698 317.45Q516.54175 317.1219 516.4949 316.6844ZM516.4011 314.325Q515.823 314.5594 514.6824 314.73126Q514.0261 314.825 513.7605 314.95Q513.4949 315.0594 513.3386 315.27814Q513.198 315.4969 513.198 315.77814Q513.198 316.2 513.5105 316.48126Q513.8386 316.7625 514.448 316.7625Q515.0574 316.7625 515.5261 316.4969Q516.0105 316.23126 516.22925 315.7625Q516.4011 315.40314 516.4011 314.71564L516.4011 314.325ZM519.41675 310.09064L519.41675 308.85626L520.47925 308.85626L520.47925 310.09064L519.41675 310.09064ZM518.0886 319.8719L518.2761 318.96564Q518.60425 319.04376 518.7761 319.04376Q519.10425 319.04376 519.2605 318.825Q519.41675 318.6219 519.41675 317.7625L519.41675 311.23126L520.47925 311.23126L520.47925 317.79376Q520.47925 318.9344 520.1824 319.3875Q519.79175 319.98126 518.91675 319.98126Q518.47925 319.98126 518.0886 319.8719ZM524.1511 317.45L521.79175 311.23126L522.9011 311.23126L524.2449 314.95Q524.448 315.5594 524.6355 316.2Q524.7761 315.71564 525.0261 315.02814L526.41675 311.23126L527.4949 311.23126L525.1355 317.45L524.1511 317.45Z" fill-rule="nonzero"/><path fill="#757575" d="M30.315624 32.534374L32.20625 33.003124Q31.6125 35.346874 30.065624 36.58125Q28.51875 37.8 26.26875 37.8Q23.95625 37.8 22.503124 36.8625Q21.065624 35.909374 20.3 34.128124Q19.55 32.33125 19.55 30.284374Q19.55 28.05 20.39375 26.39375Q21.253124 24.721874 22.83125 23.8625Q24.409374 22.9875 26.3 22.9875Q28.45625 22.9875 29.909374 24.08125Q31.378124 25.175 31.95625 27.159374L30.096874 27.596874Q29.596874 26.034374 28.64375 25.33125Q27.70625 24.6125 26.26875 24.6125Q24.6125 24.6125 23.503124 25.409374Q22.39375 26.190624 21.940624 27.534374Q21.503124 28.8625 21.503124 30.26875Q21.503124 32.096874 22.034374 33.471874Q22.565624 34.83125 23.690624 35.503124Q24.815624 36.175 26.1125 36.175Q27.70625 36.175 28.815624 35.253124Q29.925 34.33125 30.315624 32.534374ZM33.221874 32.3625Q33.221874 29.4875 34.815624 28.096874Q36.159374 26.940624 38.08125 26.940624Q40.221874 26.940624 41.565624 28.346874Q42.925 29.753124 42.925 32.221874Q42.925 34.221874 42.33125 35.378124Q41.7375 36.51875 40.58125 37.159374Q39.440624 37.784374 38.08125 37.784374Q35.89375 37.784374 34.55 36.39375Q33.221874 34.9875 33.221874 32.3625ZM35.01875 32.3625Q35.01875 34.3625 35.878124 35.346874Q36.753124 36.33125 38.08125 36.33125Q39.39375 36.33125 40.253124 35.346874Q41.128124 34.346874 41.128124 32.3Q41.128124 30.378124 40.253124 29.39375Q39.378124 28.39375 38.08125 28.39375Q36.753124 28.39375 35.878124 29.39375Q35.01875 30.378124 35.01875 32.3625ZM44.8625 37.55L44.8625 27.175L46.440624 27.175L46.440624 28.628124Q46.925 27.878124 47.7375 27.409374Q48.55 26.940624 49.58125 26.940624Q50.7375 26.940624 51.471874 27.425Q52.20625 27.89375 52.51875 28.753124Q53.753124 26.940624 55.721874 26.940624Q57.26875 26.940624 58.096874 27.8Q58.925 28.659374 58.925 30.425L58.925 37.55L57.175 37.55L57.175 31.01875Q57.175 29.95625 57.003124 29.503124Q56.83125 29.034374 56.378124 28.753124Q55.940624 28.471874 55.33125 28.471874Q54.2375 28.471874 53.503124 29.20625Q52.784374 29.925 52.784374 31.51875L52.784374 37.55L51.034374 37.55L51.034374 30.815624Q51.034374 29.64375 50.596874 29.065624Q50.175 28.471874 49.190624 28.471874Q48.45625 28.471874 47.815624 28.8625Q47.190624 29.253124 46.909374 30.003124Q46.628124 30.753124 46.628124 32.175L46.628124 37.55L44.8625 37.55ZM60.8625 41.51875L60.8625 27.175L62.471874 27.175L62.471874 28.51875Q63.034374 27.7375 63.7375 27.346874Q64.45625 26.940624 65.47188 26.940624Q66.8 26.940624 67.81563 27.628124Q68.83125 28.315624 69.34688 29.565624Q69.87813 30.8 69.87813 32.284374Q69.87813 33.878124 69.3 35.159374Q68.7375 36.425 67.64375 37.1125Q66.55 37.784374 65.34688 37.784374Q64.47188 37.784374 63.76875 37.409374Q63.08125 37.034374 62.628124 36.471874L62.628124 41.51875L60.8625 41.51875ZM62.45625 32.425Q62.45625 34.425 63.26875 35.378124Q64.08125 36.33125 65.2375 36.33125Q66.40938 36.33125 67.2375 35.346874Q68.08125 34.3625 68.08125 32.26875Q68.08125 30.3 67.25313 29.315624Q66.44063 28.315624 65.31563 28.315624Q64.19063 28.315624 63.315624 29.378124Q62.45625 30.425 62.45625 32.425ZM71.84688 37.55L71.84688 27.175L73.425 27.175L73.425 28.753124Q74.03438 27.64375 74.55 27.3Q75.06563 26.940624 75.675 26.940624Q76.56563 26.940624 77.4875 27.503124L76.87813 29.14375Q76.2375 28.753124 75.59688 28.753124Q75.01875 28.753124 74.55 29.1125Q74.09688 29.45625 73.89375 30.065624Q73.6125 31.003124 73.6125 32.1125L73.6125 37.55L71.84688 37.55ZM85.97188 34.20625L87.78438 34.440624Q87.3625 36.01875 86.19063 36.909374Q85.03438 37.784374 83.22188 37.784374Q80.95625 37.784374 79.6125 36.39375Q78.28438 34.9875 78.28438 32.45625Q78.28438 29.83125 79.62813 28.39375Q80.97188 26.940624 83.12813 26.940624Q85.20625 26.940624 86.51875 28.3625Q87.84688 29.76875 87.84688 32.346874Q87.84688 32.503124 87.83125 32.815624L80.09688 32.815624Q80.19063 34.51875 81.06563 35.425Q81.94063 36.33125 83.2375 36.33125Q84.20625 36.33125 84.87813 35.83125Q85.56563 35.315624 85.97188 34.20625ZM80.19063 31.3625L85.9875 31.3625Q85.87813 30.065624 85.33125 29.409374Q84.4875 28.39375 83.14375 28.39375Q81.94063 28.39375 81.1125 29.20625Q80.28438 30.003124 80.19063 31.3625ZM89.8625 37.55L89.8625 23.2375L91.62813 23.2375L91.62813 28.3625Q92.8625 26.940624 94.7375 26.940624Q95.87813 26.940624 96.72188 27.39375Q97.58125 27.846874 97.94063 28.659374Q98.31563 29.45625 98.31563 30.971874L98.31563 37.55L96.56563 37.55L96.56563 30.971874Q96.56563 29.659374 95.9875 29.065624Q95.40938 28.45625 94.37813 28.45625Q93.59688 28.45625 92.89375 28.8625Q92.20625 29.26875 91.90938 29.971874Q91.62813 30.659374 91.62813 31.878124L91.62813 37.55L89.8625 37.55ZM106.97188 34.20625L108.78438 34.440624Q108.3625 36.01875 107.19063 36.909374Q106.03438 37.784374 104.22188 37.784374Q101.95625 37.784374 100.6125 36.39375Q99.28438 34.9875 99.28438 32.45625Q99.28438 29.83125 100.62813 28.39375Q101.97188 26.940624 104.12813 26.940624Q106.20625 26.940624 107.51875 28.3625Q108.84688 29.76875 108.84688 32.346874Q108.84688 32.503124 108.83125 32.815624L101.09688 32.815624Q101.19063 34.51875 102.06563 35.425Q102.94063 36.33125 104.2375 36.33125Q105.20625 36.33125 105.87813 35.83125Q106.56563 35.315624 106.97188 34.20625ZM101.19063 31.3625L106.9875 31.3625Q106.87813 30.065624 106.33125 29.409374Q105.4875 28.39375 104.14375 28.39375Q102.94063 28.39375 102.1125 29.20625Q101.28438 30.003124 101.19063 31.3625ZM110.8625 37.55L110.8625 27.175L112.45625 27.175L112.45625 28.659374Q113.59688 26.940624 115.75313 26.940624Q116.69063 26.940624 117.47188 27.284374Q118.26875 27.6125 118.65938 28.159374Q119.05 28.70625 119.20625 29.45625Q119.3 29.95625 119.3 31.175L119.3 37.55L117.53438 37.55L117.53438 31.2375Q117.53438 30.159374 117.33125 29.628124Q117.12813 29.096874 116.59688 28.784374Q116.08125 28.471874 115.37813 28.471874Q114.25313 28.471874 113.44063 29.190624Q112.62813 29.89375 112.62813 31.878124L112.62813 37.55L110.8625 37.55ZM120.15938 34.45625L121.90938 34.175Q122.05 35.221874 122.72188 35.784374Q123.39375 36.33125 124.59688 36.33125Q125.8 36.33125 126.37813 35.846874Q126.97188 35.346874 126.97188 34.690624Q126.97188 34.096874 126.45625 33.753124Q126.09688 33.51875 124.65938 33.159374Q122.72188 32.659374 121.97188 32.315624Q121.2375 31.95625 120.84688 31.33125Q120.45625 30.690624 120.45625 29.925Q120.45625 29.2375 120.76875 28.64375Q121.09688 28.05 121.64375 27.659374Q122.05 27.3625 122.75313 27.159374Q123.47188 26.940624 124.28438 26.940624Q125.50313 26.940624 126.425 27.3Q127.34688 27.64375 127.78438 28.253124Q128.22188 28.846874 128.39375 29.846874L126.675 30.08125Q126.55 29.284374 125.9875 28.846874Q125.425 28.39375 124.40938 28.39375Q123.19063 28.39375 122.675 28.8Q122.15938 29.190624 122.15938 29.721874Q122.15938 30.065624 122.37813 30.346874Q122.58125 30.628124 123.05 30.815624Q123.31563 30.909374 124.59688 31.253124Q126.47188 31.753124 127.20625 32.08125Q127.94063 32.39375 128.3625 33.003124Q128.78438 33.596874 128.78438 34.503124Q128.78438 35.378124 128.26875 36.159374Q127.75313 36.940624 126.78438 37.3625Q125.81563 37.784374 124.59688 37.784374Q122.58125 37.784374 121.51875 36.940624Q120.45625 36.096874 120.15938 34.45625ZM130.87813 25.253124L130.87813 23.2375L132.64375 23.2375L132.64375 25.253124L130.87813 25.253124ZM130.87813 37.55L130.87813 27.175L132.64375 27.175L132.64375 37.55L130.87813 37.55ZM137.75313 37.55L133.8 27.175L135.65938 27.175L137.89375 33.39375Q138.25313 34.39375 138.55 35.471874Q138.78438 34.659374 139.20625 33.503124L141.50313 27.175L143.31563 27.175L139.39375 37.55L137.75313 37.55ZM150.97188 34.20625L152.78438 34.440624Q152.3625 36.01875 151.19063 36.909374Q150.03438 37.784374 148.22188 37.784374Q145.95625 37.784374 144.6125 36.39375Q143.28438 34.9875 143.28438 32.45625Q143.28438 29.83125 144.62813 28.39375Q145.97188 26.940624 148.12813 26.940624Q150.20625 26.940624 151.51875 28.3625Q152.84688 29.76875 152.84688 32.346874Q152.84688 32.503124 152.83125 32.815624L145.09688 32.815624Q145.19063 34.51875 146.06563 35.425Q146.94063 36.33125 148.2375 36.33125Q149.20625 36.33125 149.87813 35.83125Q150.56563 35.315624 150.97188 34.20625ZM145.19063 31.3625L150.9875 31.3625Q150.87813 30.065624 150.33125 29.409374Q149.4875 28.39375 148.14375 28.39375Q146.94063 28.39375 146.1125 29.20625Q145.28438 30.003124 145.19063 31.3625ZM163.75313 37.55L159.8 27.175L161.65938 27.175L163.89375 33.39375Q164.25313 34.39375 164.55 35.471874Q164.78438 34.659374 165.20625 33.503124L167.50313 27.175L169.31563 27.175L165.39375 37.55L163.75313 37.55ZM176.64375 36.26875Q175.65938 37.096874 174.75313 37.440624Q173.84688 37.784374 172.81563 37.784374Q171.1125 37.784374 170.19063 36.95625Q169.26875 36.1125 169.26875 34.815624Q169.26875 34.05 169.6125 33.425Q169.97188 32.8 170.53438 32.425Q171.09688 32.034374 171.8 31.83125Q172.31563 31.70625 173.3625 31.565624Q175.4875 31.315624 176.4875 30.971874Q176.50313 30.6125 176.50313 30.503124Q176.50313 29.440624 176.00313 28.9875Q175.33125 28.39375 174.00313 28.39375Q172.75313 28.39375 172.15938 28.83125Q171.58125 29.26875 171.3 30.378124L169.58125 30.14375Q169.81563 29.034374 170.34688 28.3625Q170.87813 27.675 171.89375 27.315624Q172.90938 26.940624 174.25313 26.940624Q175.58125 26.940624 176.40938 27.253124Q177.2375 27.565624 177.62813 28.05Q178.01875 28.51875 178.175 29.2375Q178.26875 29.690624 178.26875 30.8625L178.26875 33.20625Q178.26875 35.659374 178.37813 36.315624Q178.4875 36.95625 178.83125 37.55L176.9875 37.55Q176.72188 37.003124 176.64375 36.26875ZM176.4875 32.346874Q175.53438 32.7375 173.6125 33.003124Q172.53438 33.159374 172.08125 33.3625Q171.64375 33.55 171.39375 33.925Q171.14375 34.3 171.14375 34.76875Q171.14375 35.471874 171.675 35.940624Q172.20625 36.409374 173.2375 36.409374Q174.25313 36.409374 175.03438 35.971874Q175.83125 35.51875 176.20625 34.753124Q176.4875 34.14375 176.4875 32.9875L176.4875 32.346874ZM180.83125 37.55L180.83125 23.2375L182.58125 23.2375L182.58125 37.55L180.83125 37.55ZM184.87813 25.253124L184.87813 23.2375L186.64375 23.2375L186.64375 25.253124L184.87813 25.253124ZM184.87813 37.55L184.87813 27.175L186.64375 27.175L186.64375 37.55L184.87813 37.55ZM195.59688 37.55L195.59688 36.2375Q194.6125 37.784374 192.69063 37.784374Q191.45625 37.784374 190.40938 37.096874Q189.37813 36.409374 188.8 35.190624Q188.2375 33.971874 188.2375 32.378124Q188.2375 30.815624 188.75313 29.55Q189.26875 28.284374 190.3 27.6125Q191.34688 26.940624 192.6125 26.940624Q193.55 26.940624 194.28438 27.346874Q195.01875 27.7375 195.4875 28.3625L195.4875 23.2375L197.22188 23.2375L197.22188 37.55L195.59688 37.55ZM190.03438 32.378124Q190.03438 34.3625 190.87813 35.346874Q191.72188 36.33125 192.8625 36.33125Q194.01875 36.33125 194.81563 35.39375Q195.62813 34.45625 195.62813 32.51875Q195.62813 30.39375 194.8 29.39375Q193.9875 28.39375 192.78438 28.39375Q191.6125 28.39375 190.81563 29.3625Q190.03438 30.315624 190.03438 32.378124ZM206.64375 36.26875Q205.65938 37.096874 204.75313 37.440624Q203.84688 37.784374 202.81563 37.784374Q201.1125 37.784374 200.19063 36.95625Q199.26875 36.1125 199.26875 34.815624Q199.26875 34.05 199.6125 33.425Q199.97188 32.8 200.53438 32.425Q201.09688 32.034374 201.8 31.83125Q202.31563 31.70625 203.3625 31.565624Q205.4875 31.315624 206.4875 30.971874Q206.50313 30.6125 206.50313 30.503124Q206.50313 29.440624 206.00313 28.9875Q205.33125 28.39375 204.00313 28.39375Q202.75313 28.39375 202.15938 28.83125Q201.58125 29.26875 201.3 30.378124L199.58125 30.14375Q199.81563 29.034374 200.34688 28.3625Q200.87813 27.675 201.89375 27.315624Q202.90938 26.940624 204.25313 26.940624Q205.58125 26.940624 206.40938 27.253124Q207.2375 27.565624 207.62813 28.05Q208.01875 28.51875 208.175 29.2375Q208.26875 29.690624 208.26875 30.8625L208.26875 33.20625Q208.26875 35.659374 208.37813 36.315624Q208.4875 36.95625 208.83125 37.55L206.9875 37.55Q206.72188 37.003124 206.64375 36.26875ZM206.4875 32.346874Q205.53438 32.7375 203.6125 33.003124Q202.53438 33.159374 202.08125 33.3625Q201.64375 33.55 201.39375 33.925Q201.14375 34.3 201.14375 34.76875Q201.14375 35.471874 201.675 35.940624Q202.20625 36.409374 203.2375 36.409374Q204.25313 36.409374 205.03438 35.971874Q205.83125 35.51875 206.20625 34.753124Q206.4875 34.14375 206.4875 32.9875L206.4875 32.346874ZM214.70625 35.971874L214.95625 37.534374Q214.22188 37.690624 213.62813 37.690624Q212.675 37.690624 212.14375 37.39375Q211.62813 37.08125 211.40938 36.596874Q211.19063 36.096874 211.19063 34.51875L211.19063 28.55L209.90938 28.55L209.90938 27.175L211.19063 27.175L211.19063 24.6125L212.94063 23.55L212.94063 27.175L214.70625 27.175L214.70625 28.55L212.94063 28.55L212.94063 34.6125Q212.94063 35.3625 213.03438 35.58125Q213.12813 35.784374 213.33125 35.925Q213.55 36.05 213.94063 36.05Q214.22188 36.05 214.70625 35.971874ZM216.87813 25.253124L216.87813 23.2375L218.64375 23.2375L218.64375 25.253124L216.87813 25.253124ZM216.87813 37.55L216.87813 27.175L218.64375 27.175L218.64375 37.55L216.87813 37.55ZM220.22188 32.3625Q220.22188 29.4875 221.81563 28.096874Q223.15938 26.940624 225.08125 26.940624Q227.22188 26.940624 228.56563 28.346874Q229.925 29.753124 229.925 32.221874Q229.925 34.221874 229.33125 35.378124Q228.7375 36.51875 227.58125 37.159374Q226.44063 37.784374 225.08125 37.784374Q222.89375 37.784374 221.55 36.39375Q220.22188 34.9875 220.22188 32.3625ZM222.01875 32.3625Q222.01875 34.3625 222.87813 35.346874Q223.75313 36.33125 225.08125 36.33125Q226.39375 36.33125 227.25313 35.346874Q228.12813 34.346874 228.12813 32.3Q228.12813 30.378124 227.25313 29.39375Q226.37813 28.39375 225.08125 28.39375Q223.75313 28.39375 222.87813 29.39375Q222.01875 30.378124 222.01875 32.3625ZM231.8625 37.55L231.8625 27.175L233.45625 27.175L233.45625 28.659374Q234.59688 26.940624 236.75313 26.940624Q237.69063 26.940624 238.47188 27.284374Q239.26875 27.6125 239.65938 28.159374Q240.05 28.70625 240.20625 29.45625Q240.3 29.95625 240.3 31.175L240.3 37.55L238.53438 37.55L238.53438 31.2375Q238.53438 30.159374 238.33125 29.628124Q238.12813 29.096874 237.59688 28.784374Q237.08125 28.471874 236.37813 28.471874Q235.25313 28.471874 234.44063 29.190624Q233.62813 29.89375 233.62813 31.878124L233.62813 37.55L231.8625 37.55Z" fill-rule="nonzero"/></svg>